<?xml version="1.0" encoding="UTF-8" standalone="no"?>
<!-- Generator: Adobe Illustrator 19.1.0, SVG Export Plug-In . SVG Version: 6.00 Build 0)  -->

<svg
   xmlns:dc="http://purl.org/dc/elements/1.1/"
   xmlns:cc="http://creativecommons.org/ns#"
   xmlns:rdf="http://www.w3.org/1999/02/22-rdf-syntax-ns#"
   xmlns:svg="http://www.w3.org/2000/svg"
   xmlns="http://www.w3.org/2000/svg"
   xmlns:sodipodi="http://sodipodi.sourceforge.net/DTD/sodipodi-0.dtd"
   xmlns:inkscape="http://www.inkscape.org/namespaces/inkscape"
   version="1.2"
   id="Ebene_1"
   x="0px"
   y="0px"
   viewBox="0 0 511.91001 110.05001"
   xml:space="preserve"
   inkscape:version="0.91 r13725"
   sodipodi:docname="shopware-logo.svg"
   width="511.91"
   height="110.05"><metadata
     id="metadata22"><rdf:RDF><cc:Work
         rdf:about=""><dc:format>image/svg+xml</dc:format><dc:type
           rdf:resource="http://purl.org/dc/dcmitype/StillImage" /><dc:title></dc:title></cc:Work></rdf:RDF></metadata><defs
     id="defs20" /><sodipodi:namedview
     pagecolor="#ffffff"
     bordercolor="#666666"
     borderopacity="1"
     objecttolerance="10"
     gridtolerance="10"
     guidetolerance="10"
     inkscape:pageopacity="0"
     inkscape:pageshadow="2"
     inkscape:window-width="1920"
     inkscape:window-height="1056"
     id="namedview18"
     showgrid="false"
     fit-margin-top="0"
     fit-margin-left="0"
     fit-margin-right="0"
     fit-margin-bottom="0"
     inkscape:zoom="1.0089429"
     inkscape:cx="252.05209"
     inkscape:cy="-31.817672"
     inkscape:window-x="0"
     inkscape:window-y="24"
     inkscape:window-maximized="1"
     inkscape:current-layer="Ebene_1" /><g
     id="XMLID_462_"
     transform="translate(-27.51,-27.52)"><g
       id="XMLID_564_"><path
         id="XMLID_565_"
         d="m 177.68,83.05 c -4.68,-2.03 -8.53,-3.87 -8.53,-6.92 0,-2.14 2.42,-4.17 6.5,-4.17 3.66,0 6.82,0.92 10.07,2.34 0.92,0.41 2.34,0.51 3.05,-0.92 l 1.63,-3.26 c 0.61,-1.22 0.1,-2.65 -1.02,-3.46 -2.34,-1.53 -7.22,-3.46 -13.74,-3.46 -11.4,0 -16.06,6.92 -16.06,12.82 0,7.73 5.99,11.6 13.21,14.86 6.51,2.95 10.07,4.98 10.07,8.14 0,2.65 -2.24,4.58 -6.21,4.58 -5.6,0 -8.95,-1.93 -11.7,-3.46 -1.22,-0.71 -2.54,-0.41 -3.05,0.61 l -2.14,4.38 c -0.51,1.02 0.1,1.93 0.81,2.44 2.65,1.83 8.04,4.78 15.47,4.78 10.48,0 16.79,-6.41 16.79,-13.74 0.01,-8.74 -6.5,-11.89 -15.15,-15.56 z"
         inkscape:connector-curvature="0"
         style="fill:#189eff" /></g><g
       id="XMLID_561_"><path
         id="XMLID_563_"
         d="m 115.28,125.52 c -4.78,-3.6 -11.83,-6.34 -19.29,-9.23 -8.88,-3.44 -18.95,-7.35 -26.51,-13.36 -8.56,-6.82 -12.73,-15.42 -12.73,-26.29 0,-9.76 4.05,-18.1 11.71,-24.13 8.59,-6.76 21.61,-10.34 37.64,-10.34 4.43,0 8.66,0.27 12.58,0.81 0.35,0.05 0.68,-0.14 0.82,-0.45 0.15,-0.32 0.07,-0.69 -0.19,-0.92 -10.1,-9.09 -23.16,-14.09 -36.76,-14.09 -14.7,0 -28.52,5.72 -38.92,16.12 -10.39,10.39 -16.12,24.21 -16.12,38.9 0,14.7 5.72,28.52 16.12,38.91 10.39,10.39 24.21,16.12 38.92,16.12 11.88,0 23.19,-3.73 32.72,-10.78 0.2,-0.15 0.32,-0.38 0.32,-0.63 0,-0.25 -0.11,-0.49 -0.31,-0.64 z"
         inkscape:connector-curvature="0"
         style="fill:#189eff" /><path
         id="XMLID_562_"
         d="m 137.34,77.46 c -0.02,-0.21 -0.12,-0.41 -0.28,-0.54 C 125.58,67.39 116.29,63.5 105,63.5 c -6.02,0 -10.64,1.21 -13.72,3.59 -2.67,2.06 -4.08,4.94 -4.08,8.31 0,9.45 11.55,13.76 24.93,18.75 6.89,2.57 14.02,5.23 20.56,8.86 0.12,0.07 0.25,0.1 0.38,0.1 0.09,0 0.18,-0.02 0.27,-0.05 0.21,-0.08 0.39,-0.24 0.47,-0.46 2.5,-6.4 3.77,-13.15 3.77,-20.06 -0.01,-1.62 -0.08,-3.33 -0.24,-5.08 z"
         inkscape:connector-curvature="0"
         style="fill:#189eff" /></g><path
       id="XMLID_558_"
       d="m 453.63,111.78 c 1.41,-0.16 2.38,-1.19 2.38,-2.47 l 0,-23.87 c 0,-12.21 -1.49,-21.67 -17.21,-21.67 -9.03,0 -16.04,2.44 -16.89,2.76 -1.17,0.42 -1.91,1.17 -1.59,2.87 l 0.96,4.04 c 0.32,1.38 1.27,2.34 2.76,2.02 2.55,-0.74 8.07,-2.34 13.7,-2.34 6.16,0 8.07,3.51 7.86,11.26 0,0 -4.78,-1.49 -9.88,-1.49 -12.64,0 -19.65,6.8 -19.65,15.83 0,10.2 6.47,13.65 15.71,13.65 7.54,0 15.3,-0.09 18.53,-0.3 l 3.32,-0.29 z m -8.14,-8.66 c -1.49,2.44 -6.8,1.83 -11.36,1.74 -5.1,-0.11 -7.65,-1.89 -7.65,-6.25 0,-5.1 4.35,-8.07 10.09,-8.07 4.46,0 8.29,1.28 8.92,1.7 l 0,10.88 z"
       inkscape:connector-curvature="0"
       style="fill:#189eff" /><path
       id="XMLID_555_"
       d="m 533.83,63.21 c 3.09,0 5.59,-2.49 5.59,-5.57 0,-3.08 -2.5,-5.57 -5.59,-5.57 -3.09,0 -5.59,2.49 -5.59,5.57 0,3.08 2.5,5.57 5.59,5.57 z m 0,-10.32 c 2.59,0 4.71,2.14 4.71,4.75 0,2.61 -2.11,4.75 -4.71,4.75 -2.59,0 -4.7,-2.14 -4.7,-4.75 0,-2.61 2.11,-4.75 4.7,-4.75 z"
       inkscape:connector-curvature="0"
       style="fill:#189eff" /><path
       id="XMLID_552_"
       d="m 531.93,60.46 0.52,0 c 0.08,0 0.15,-0.07 0.15,-0.15 l 0,-2.05 1.22,0 1.05,2.1 c 0.03,0.07 0.08,0.1 0.17,0.1 l 0.6,0 c 0.14,0 0.19,-0.13 0.14,-0.23 l -1.1,-2.05 c 0.7,-0.28 1.19,-0.89 1.19,-1.63 0,-0.96 -0.79,-1.72 -1.75,-1.72 l -2.19,0 c -0.09,0 -0.15,0.07 -0.15,0.15 l 0,5.33 c 0,0.08 0.06,0.15 0.15,0.15 z m 0.69,-4.85 1.43,0 c 0.52,0 0.98,0.43 0.98,0.96 0,0.56 -0.46,1 -0.98,1 l -1.43,0 0,-1.96 z"
       inkscape:connector-curvature="0"
       style="fill:#189eff" /><path
       id="XMLID_551_"
       d="m 224.1,63.21 c -7.43,0 -12.52,4.07 -13.63,4.89 l 0,-20.99 c 0,-1.12 -1.12,-2.24 -2.24,-2.24 l -5.7,0 c -1.22,0 -2.24,1.12 -2.24,2.24 l 0,63.01 c 0,1.22 1.02,2.24 2.24,2.24 l 5.6,0 c 1.43,0 2.34,-0.92 2.34,-2.24 l 0,-30.42 c 1.02,-2.03 5.09,-6.82 12.31,-6.82 6.11,0 9.36,4.58 9.36,12.31 l 0,24.94 c 0,1.22 1.02,2.24 2.24,2.24 l 5.7,0 c 1.12,0 2.24,-1.02 2.24,-2.24 l 0,-24.73 C 242.31,72.58 237.43,63.21 224.1,63.21 Z"
       inkscape:connector-curvature="0"
       style="fill:#189eff" /><path
       id="XMLID_548_"
       d="m 343.29,85.89 c -0.56,-15.97 -7.25,-22.68 -22.66,-22.68 -7.4,0 -16.23,2.22 -17.53,2.79 -1.6,0.69 -2.78,1.51 -2.78,2.63 l 0,0.93 0,3.41 0,11.04 0,1.5 0,42.95 c 0,1.22 1.02,2.24 2.24,2.24 l 4.72,0 c 1.53,0 2.44,-0.92 2.44,-2.24 l -0.01,-16.91 c 1.43,0.37 8.74,0.99 14.84,0.8 10.88,-0.34 18.18,-8.24 18.79,-21.58 0.08,-1.82 0.07,-4.34 -0.05,-5.98 l 0,1.1 z m -9.83,4.87 c -0.21,9.05 -2.84,13.05 -10.46,13.47 -3.77,0.21 -12.67,-0.84 -12.67,-0.84 -0.37,-0.12 -0.62,-0.28 -0.62,-0.62 l -0.01,-18.34 0,-10.4 c 0,-0.28 0.21,-0.51 0.49,-0.54 1.05,-0.11 4.9,-1.35 10.44,-1.35 9.28,0 12.55,1.36 12.85,13.11 0.02,1.55 0.02,3.72 -0.02,5.51 z"
       inkscape:connector-curvature="0"
       style="fill:#189eff" /><path
       id="XMLID_525_"
       d="m 410.68,64.23 -4.27,0 c -1.22,0 -2.95,0 -3.56,1.43 l -7.53,27.06 -0.2,0 -12.62,-28.39 c -0.2,-0.61 -0.92,-1.12 -2.03,-1.12 l -0.71,0 c -0.92,0 -1.63,0.51 -1.93,1.12 l -12.73,28.29 -0.2,0 -7.73,-26.96 c -0.2,-0.92 -1.22,-1.43 -2.03,-1.43 l -6.11,0 c -1.63,0 -2.34,1.22 -1.63,2.65 l 13.74,44.26 c 0.2,0.71 0.92,1.22 1.93,1.22 l 0.61,0 c 1.02,0 1.63,-0.51 1.83,-1.12 l 14.45,-31.95 0.2,0 14.35,31.95 c 0.31,0.61 1.02,1.12 2.03,1.12 l 0.41,0 c 1.02,0 1.93,-0.51 2.14,-1.22 l 13.43,-44.26 c 0.71,-1.43 -0.21,-2.65 -1.84,-2.65 z"
       inkscape:connector-curvature="0"
       style="fill:#189eff" /><path
       id="XMLID_482_"
       d="m 485.74,63.77 c -0.25,0 -0.48,0.02 -0.73,0.03 -0.41,-0.01 -0.81,-0.03 -1.24,-0.03 -2.44,0 -4.78,0.08 -6.97,0.19 l 0,0 c -4.22,0.17 -6.72,0.49 -8.5,0.69 0,0 -1.14,0.11 -2.47,0.28 -0.89,0.11 -1.54,0.48 -1.94,0.99 -0.27,0.29 -0.44,0.66 -0.44,1.11 l 0,0.16 0,0.93 0,3.41 0,9.46 0,29.12 c 0,1.22 1.02,2.24 2.24,2.24 l 4.68,0 c 1.93,0 3.26,-0.2 3.26,-2.24 l 0,-29.12 0,0 0,-6.68 c 0,-0.28 0.44,-0.63 0.68,-0.78 1.15,-0.69 3.91,-1.19 9.46,-1.19 0.54,0 0.89,0.01 1.29,0.02 1.27,0.12 3.28,0.51 3.93,0.88 1.02,0.51 2.24,0.2 2.85,-1.12 l 2.44,-3.99 c 1.53,-3.14 -4.06,-4.36 -8.54,-4.36 z"
       inkscape:connector-curvature="0"
       style="fill:#189eff" /><path
       id="XMLID_470_"
       d="m 517.95,63.21 c -14.14,0 -23.4,11.3 -23.4,24.52 0,13.43 9.26,24.62 23.5,24.62 7.83,0 14.04,-2.85 17.4,-5.8 1.42,-1.22 1.02,-2.14 0.2,-3.15 l -2.75,-4.27 c -0.81,-1.22 -1.73,-0.92 -2.75,-0.2 -2.85,2.03 -6.11,3.97 -11.5,3.97 -8.24,0 -13.94,-6.51 -14.04,-12.82 l 32.46,0 c 1.02,0 2.03,-0.82 2.14,-2.04 0.1,-0.81 0.2,-2.44 0.2,-3.26 0,-12.51 -9.25,-21.57 -21.46,-21.57 z m -12.82,19.33 c 0.71,-5.9 5.19,-10.68 12.62,-10.68 6.92,0 11.4,4.99 11.6,10.68 l -24.22,0 z"
       inkscape:connector-curvature="0"
       style="fill:#189eff" /><path
       id="XMLID_463_"
       d="m 292.15,77.75 c -1.06,-3.03 -2.55,-5.63 -4.46,-7.79 -1.91,-2.16 -4.2,-3.83 -6.85,-5 -2.65,-1.17 -6.41,-1.76 -9.53,-1.76 -3.12,0 -6.87,0.59 -9.52,1.76 -2.65,1.17 -4.93,2.84 -6.85,5 -1.91,2.16 -3.4,4.76 -4.46,7.79 -1.06,3.03 -1.59,6.38 -1.59,10.04 0,3.72 0.53,7.08 1.59,10.08 1.06,3 2.55,5.58 4.46,7.74 1.91,2.16 4.2,3.83 6.85,5 2.65,1.17 6.4,1.75 9.52,1.75 3.12,0 6.88,-0.58 9.53,-1.75 2.65,-1.17 4.93,-2.84 6.85,-5 1.91,-2.16 3.4,-4.74 4.46,-7.74 1.06,-3 1.59,-6.36 1.59,-10.08 0,-3.66 -0.53,-7.01 -1.59,-10.04 z m -21.1,26.51 c -8.49,0 -12.77,-7.19 -12.77,-16.06 0,-8.87 4.27,-16.06 12.77,-16.06 8.5,0 12.77,7.19 12.77,16.06 0,8.87 -4.28,16.06 -12.77,16.06 z"
       inkscape:connector-curvature="0"
       style="fill:#189eff" /></g></svg>