<?xml version="1.0" encoding="utf-8"?>
<svg viewBox="96 90.297 465.188 59.174" width="465.188" height="59.174" xmlns="http://www.w3.org/2000/svg">
  <path d="M 124.061 93 C 108.563 93 96 104.705 96 119.144 C 96 127.371 100.081 134.71 106.458 139.502 L 106.458 149.471 L 116.012 144.194 C 118.562 144.904 121.263 145.288 124.061 145.288 C 139.559 145.288 152.122 133.583 152.122 119.144 C 152.122 104.705 139.559 93 124.061 93 Z M 126.85 128.207 L 119.704 120.538 L 105.76 128.207 L 121.098 111.824 L 128.418 119.492 L 142.187 111.824 L 126.85 128.207 Z" fill="#0084ff"/>
  <path d="M 178.459 121.009 L 178.459 134.049 L 176.419 134.049 L 176.419 104.849 L 192.419 104.849 L 192.419 106.729 L 178.459 106.729 L 178.459 119.109 L 191.639 119.109 L 191.639 121.009 L 178.459 121.009 ZM 211.085 134.049 L 209.635 134.049 L 209.135 130.619 L 208.975 130.619 C 207.881 132.012 206.758 132.999 205.605 133.579 C 204.451 134.159 203.091 134.449 201.525 134.449 C 199.391 134.449 197.731 133.902 196.545 132.809 C 195.365 131.716 194.775 130.206 194.775 128.279 C 194.775 126.159 195.655 124.516 197.415 123.349 C 199.181 122.176 201.735 121.556 205.075 121.489 L 209.215 121.369 L 209.215 119.929 C 209.215 117.869 208.795 116.312 207.955 115.259 C 207.115 114.206 205.761 113.679 203.895 113.679 C 201.888 113.679 199.805 114.239 197.645 115.359 L 196.905 113.639 C 199.291 112.519 201.648 111.959 203.975 111.959 C 206.361 111.959 208.145 112.579 209.325 113.819 C 210.498 115.059 211.085 116.989 211.085 119.609 L 211.085 134.049 Z M 201.645 132.649 C 203.958 132.649 205.785 131.986 207.125 130.659 C 208.465 129.339 209.135 127.499 209.135 125.139 L 209.135 123.009 L 205.335 123.169 C 202.288 123.316 200.115 123.789 198.815 124.589 C 197.515 125.396 196.865 126.652 196.865 128.359 C 196.865 129.719 197.281 130.772 198.115 131.519 C 198.948 132.272 200.125 132.649 201.645 132.649 ZM 226.778 134.449 C 223.678 134.449 221.248 133.469 219.488 131.509 C 217.735 129.556 216.858 126.829 216.858 123.329 C 216.858 119.729 217.768 116.929 219.588 114.929 C 221.415 112.922 223.912 111.919 227.078 111.919 C 228.958 111.919 230.755 112.246 232.468 112.899 L 231.928 114.659 C 230.055 114.032 228.425 113.719 227.038 113.719 C 224.378 113.719 222.362 114.542 220.988 116.189 C 219.615 117.829 218.928 120.196 218.928 123.289 C 218.928 126.216 219.615 128.509 220.988 130.169 C 222.362 131.822 224.278 132.649 226.738 132.649 C 228.712 132.649 230.542 132.296 232.228 131.589 L 232.228 133.429 C 230.848 134.109 229.032 134.449 226.778 134.449 ZM 246.306 134.449 C 243.152 134.449 240.692 133.476 238.926 131.529 C 237.166 129.589 236.286 126.869 236.286 123.369 C 236.286 119.902 237.136 117.129 238.836 115.049 C 240.542 112.962 242.839 111.919 245.726 111.919 C 248.286 111.919 250.302 112.812 251.776 114.599 C 253.256 116.379 253.996 118.802 253.996 121.869 L 253.996 123.469 L 238.356 123.469 C 238.382 126.449 239.079 128.726 240.446 130.299 C 241.812 131.866 243.766 132.649 246.306 132.649 C 247.546 132.649 248.636 132.562 249.576 132.389 C 250.509 132.216 251.696 131.842 253.136 131.269 L 253.136 133.069 C 251.909 133.602 250.779 133.966 249.746 134.159 C 248.706 134.352 247.559 134.449 246.306 134.449 Z M 245.726 113.679 C 243.639 113.679 241.962 114.369 240.696 115.749 C 239.429 117.122 238.689 119.109 238.476 121.709 L 251.896 121.709 C 251.896 119.189 251.352 117.222 250.266 115.809 C 249.172 114.389 247.659 113.679 245.726 113.679 ZM 269.148 111.919 C 272.181 111.919 274.468 112.876 276.008 114.789 C 277.548 116.696 278.318 119.489 278.318 123.169 C 278.318 126.776 277.508 129.556 275.888 131.509 C 274.268 133.469 271.995 134.449 269.068 134.449 C 267.521 134.449 266.131 134.129 264.898 133.489 C 263.658 132.849 262.678 131.942 261.958 130.769 L 261.778 130.769 L 261.218 134.049 L 259.978 134.049 L 259.978 102.979 L 261.958 102.979 L 261.958 110.779 C 261.958 111.952 261.931 113.032 261.878 114.019 L 261.818 115.719 L 261.958 115.719 C 262.785 114.412 263.781 113.452 264.948 112.839 C 266.108 112.226 267.508 111.919 269.148 111.919 Z M 269.108 113.719 C 266.555 113.719 264.725 114.452 263.618 115.919 C 262.511 117.379 261.958 119.796 261.958 123.169 L 261.958 123.509 C 261.958 126.782 262.535 129.132 263.688 130.559 C 264.841 131.979 266.635 132.689 269.068 132.689 C 271.441 132.689 273.225 131.862 274.418 130.209 C 275.618 128.549 276.218 126.189 276.218 123.129 C 276.218 116.856 273.848 113.719 269.108 113.719 ZM 302.277 123.169 C 302.277 126.709 301.417 129.472 299.697 131.459 C 297.984 133.452 295.614 134.449 292.587 134.449 C 290.687 134.449 289.011 133.989 287.557 133.069 C 286.104 132.149 284.991 130.832 284.217 129.119 C 283.451 127.399 283.067 125.416 283.067 123.169 C 283.067 119.622 283.924 116.862 285.637 114.889 C 287.357 112.909 289.714 111.919 292.707 111.919 C 295.694 111.919 298.034 112.922 299.727 114.929 C 301.427 116.929 302.277 119.676 302.277 123.169 Z M 285.137 123.169 C 285.137 126.149 285.794 128.476 287.107 130.149 C 288.421 131.816 290.274 132.649 292.667 132.649 C 295.067 132.649 296.921 131.816 298.227 130.149 C 299.541 128.476 300.197 126.149 300.197 123.169 C 300.197 120.169 299.534 117.846 298.207 116.199 C 296.887 114.546 295.027 113.719 292.627 113.719 C 290.234 113.719 288.387 114.542 287.087 116.189 C 285.787 117.829 285.137 120.156 285.137 123.169 ZM 326.237 123.169 C 326.237 126.709 325.377 129.472 323.657 131.459 C 321.944 133.452 319.574 134.449 316.547 134.449 C 314.647 134.449 312.97 133.989 311.517 133.069 C 310.064 132.149 308.95 130.832 308.177 129.119 C 307.41 127.399 307.027 125.416 307.027 123.169 C 307.027 119.622 307.884 116.862 309.597 114.889 C 311.317 112.909 313.674 111.919 316.667 111.919 C 319.654 111.919 321.994 112.922 323.687 114.929 C 325.387 116.929 326.237 119.676 326.237 123.169 Z M 309.097 123.169 C 309.097 126.149 309.754 128.476 311.067 130.149 C 312.38 131.816 314.234 132.649 316.627 132.649 C 319.027 132.649 320.88 131.816 322.187 130.149 C 323.5 128.476 324.157 126.149 324.157 123.169 C 324.157 120.169 323.494 117.846 322.167 116.199 C 320.847 114.546 318.987 113.719 316.587 113.719 C 314.194 113.719 312.347 114.542 311.047 116.189 C 309.747 117.829 309.097 120.156 309.097 123.169 ZM 334.077 124.519 L 334.177 124.519 L 345.267 112.339 L 347.657 112.339 L 339.107 121.609 L 348.397 134.049 L 346.017 134.049 L 337.777 123.089 L 334.217 126.319 L 334.217 134.049 L 332.237 134.049 L 332.237 102.979 L 334.217 102.979 L 334.217 118.549 L 334.077 124.519 ZM 377.286 134.049 L 375.996 134.049 L 365.106 107.089 L 364.946 107.089 C 365.053 108.742 365.106 110.432 365.106 112.159 L 365.106 134.049 L 363.146 134.049 L 363.146 104.849 L 366.306 104.849 L 376.646 130.539 L 376.766 130.539 L 387.116 104.849 L 390.186 104.849 L 390.186 134.049 L 388.136 134.049 L 388.136 111.919 C 388.136 110.379 388.216 108.782 388.376 107.129 L 388.216 107.129 L 377.286 134.049 ZM 406.697 134.449 C 403.544 134.449 401.084 133.476 399.317 131.529 C 397.557 129.589 396.677 126.869 396.677 123.369 C 396.677 119.902 397.527 117.129 399.227 115.049 C 400.934 112.962 403.23 111.919 406.117 111.919 C 408.677 111.919 410.694 112.812 412.167 114.599 C 413.647 116.379 414.387 118.802 414.387 121.869 L 414.387 123.469 L 398.747 123.469 C 398.774 126.449 399.47 128.726 400.837 130.299 C 402.204 131.866 404.157 132.649 406.697 132.649 C 407.937 132.649 409.027 132.562 409.967 132.389 C 410.9 132.216 412.087 131.842 413.527 131.269 L 413.527 133.069 C 412.3 133.602 411.17 133.966 410.137 134.159 C 409.097 134.352 407.95 134.449 406.697 134.449 Z M 406.117 113.679 C 404.03 113.679 402.354 114.369 401.087 115.749 C 399.82 117.122 399.08 119.109 398.867 121.709 L 412.287 121.709 C 412.287 119.189 411.744 117.222 410.657 115.809 C 409.564 114.389 408.05 113.679 406.117 113.679 ZM 433.829 128.399 C 433.829 130.339 433.093 131.832 431.619 132.879 C 430.139 133.926 428.043 134.449 425.329 134.449 C 422.423 134.449 420.119 134.002 418.419 133.109 L 418.419 130.969 C 420.599 132.062 422.903 132.609 425.329 132.609 C 427.469 132.609 429.096 132.252 430.209 131.539 C 431.323 130.832 431.879 129.886 431.879 128.699 C 431.879 127.606 431.436 126.686 430.549 125.939 C 429.663 125.192 428.209 124.462 426.189 123.749 C 424.016 122.962 422.489 122.286 421.609 121.719 C 420.729 121.152 420.069 120.512 419.629 119.799 C 419.183 119.086 418.959 118.216 418.959 117.189 C 418.959 115.569 419.639 114.286 420.999 113.339 C 422.366 112.392 424.276 111.919 426.729 111.919 C 429.069 111.919 431.293 112.359 433.399 113.239 L 432.659 115.039 C 430.526 114.159 428.549 113.719 426.729 113.719 C 424.956 113.719 423.549 114.012 422.509 114.599 C 421.469 115.186 420.949 115.996 420.949 117.029 C 420.949 118.162 421.353 119.069 422.159 119.749 C 422.966 120.429 424.543 121.189 426.889 122.029 C 428.843 122.736 430.266 123.369 431.159 123.929 C 432.053 124.496 432.723 125.139 433.169 125.859 C 433.609 126.579 433.829 127.426 433.829 128.399 ZM 452.877 128.399 C 452.877 130.339 452.141 131.832 450.667 132.879 C 449.187 133.926 447.091 134.449 444.377 134.449 C 441.471 134.449 439.167 134.002 437.467 133.109 L 437.467 130.969 C 439.647 132.062 441.951 132.609 444.377 132.609 C 446.517 132.609 448.144 132.252 449.257 131.539 C 450.371 130.832 450.927 129.886 450.927 128.699 C 450.927 127.606 450.484 126.686 449.597 125.939 C 448.711 125.192 447.257 124.462 445.237 123.749 C 443.064 122.962 441.537 122.286 440.657 121.719 C 439.777 121.152 439.117 120.512 438.677 119.799 C 438.231 119.086 438.007 118.216 438.007 117.189 C 438.007 115.569 438.687 114.286 440.047 113.339 C 441.414 112.392 443.324 111.919 445.777 111.919 C 448.117 111.919 450.341 112.359 452.447 113.239 L 451.707 115.039 C 449.574 114.159 447.597 113.719 445.777 113.719 C 444.004 113.719 442.597 114.012 441.557 114.599 C 440.517 115.186 439.997 115.996 439.997 117.029 C 439.997 118.162 440.401 119.069 441.207 119.749 C 442.014 120.429 443.591 121.189 445.937 122.029 C 447.891 122.736 449.314 123.369 450.207 123.929 C 451.101 124.496 451.771 125.139 452.217 125.859 C 452.657 126.579 452.877 127.426 452.877 128.399 ZM 467.235 134.449 C 464.082 134.449 461.622 133.476 459.855 131.529 C 458.095 129.589 457.215 126.869 457.215 123.369 C 457.215 119.902 458.065 117.129 459.765 115.049 C 461.472 112.962 463.769 111.919 466.655 111.919 C 469.215 111.919 471.232 112.812 472.705 114.599 C 474.185 116.379 474.925 118.802 474.925 121.869 L 474.925 123.469 L 459.285 123.469 C 459.312 126.449 460.009 128.726 461.375 130.299 C 462.742 131.866 464.695 132.649 467.235 132.649 C 468.475 132.649 469.565 132.562 470.505 132.389 C 471.439 132.216 472.625 131.842 474.065 131.269 L 474.065 133.069 C 472.839 133.602 471.709 133.966 470.675 134.159 C 469.635 134.352 468.489 134.449 467.235 134.449 Z M 466.655 113.679 C 464.569 113.679 462.892 114.369 461.625 115.749 C 460.359 117.122 459.619 119.109 459.405 121.709 L 472.825 121.709 C 472.825 119.189 472.282 117.222 471.195 115.809 C 470.102 114.389 468.589 113.679 466.655 113.679 ZM 498.008 134.049 L 496.048 134.049 L 496.048 119.969 C 496.048 117.789 495.588 116.202 494.668 115.209 C 493.754 114.216 492.331 113.719 490.398 113.719 C 487.804 113.719 485.904 114.376 484.698 115.689 C 483.491 116.996 482.888 119.122 482.888 122.069 L 482.888 134.049 L 480.908 134.049 L 480.908 112.339 L 482.588 112.339 L 482.968 115.319 L 483.088 115.319 C 484.501 113.052 487.011 111.919 490.618 111.919 C 495.544 111.919 498.008 114.562 498.008 119.849 L 498.008 134.049 ZM 515.017 112.339 L 521.967 112.339 L 521.967 113.719 L 517.477 113.999 C 518.671 115.492 519.267 117.129 519.267 118.909 C 519.267 121.002 518.574 122.696 517.187 123.989 C 515.794 125.289 513.927 125.939 511.587 125.939 C 510.601 125.939 509.907 125.899 509.507 125.819 C 508.721 126.232 508.121 126.719 507.707 127.279 C 507.294 127.839 507.087 128.432 507.087 129.059 C 507.087 129.752 507.351 130.259 507.877 130.579 C 508.404 130.892 509.287 131.049 510.527 131.049 L 514.317 131.049 C 516.677 131.049 518.481 131.526 519.727 132.479 C 520.981 133.432 521.607 134.842 521.607 136.709 C 521.607 138.996 520.677 140.762 518.817 142.009 C 516.964 143.256 514.321 143.879 510.887 143.879 C 508.154 143.879 506.041 143.352 504.547 142.299 C 503.047 141.246 502.297 139.779 502.297 137.899 C 502.297 136.412 502.761 135.176 503.687 134.189 C 504.607 133.202 505.861 132.529 507.447 132.169 C 506.794 131.889 506.271 131.492 505.877 130.979 C 505.484 130.472 505.287 129.886 505.287 129.219 C 505.287 127.766 506.214 126.486 508.067 125.379 C 506.801 124.859 505.814 124.046 505.107 122.939 C 504.407 121.826 504.057 120.549 504.057 119.109 C 504.057 116.942 504.744 115.202 506.117 113.889 C 507.497 112.576 509.357 111.919 511.697 111.919 C 513.124 111.919 514.231 112.059 515.017 112.339 Z M 504.397 137.719 C 504.397 140.706 506.614 142.199 511.047 142.199 C 516.741 142.199 519.587 140.382 519.587 136.749 C 519.587 135.442 519.144 134.496 518.257 133.909 C 517.364 133.322 515.917 133.029 513.917 133.029 L 510.367 133.029 C 506.387 133.029 504.397 134.592 504.397 137.719 Z M 506.047 119.109 C 506.047 120.789 506.557 122.092 507.577 123.019 C 508.597 123.939 509.957 124.399 511.657 124.399 C 513.471 124.399 514.861 123.942 515.827 123.029 C 516.794 122.109 517.277 120.776 517.277 119.029 C 517.277 117.182 516.781 115.796 515.787 114.869 C 514.794 113.942 513.404 113.479 511.617 113.479 C 509.891 113.479 508.531 113.976 507.537 114.969 C 506.544 115.962 506.047 117.342 506.047 119.109 ZM 535.181 134.449 C 532.028 134.449 529.568 133.476 527.801 131.529 C 526.041 129.589 525.161 126.869 525.161 123.369 C 525.161 119.902 526.011 117.129 527.711 115.049 C 529.418 112.962 531.715 111.919 534.601 111.919 C 537.161 111.919 539.178 112.812 540.651 114.599 C 542.131 116.379 542.871 118.802 542.871 121.869 L 542.871 123.469 L 527.231 123.469 C 527.258 126.449 527.955 128.726 529.321 130.299 C 530.688 131.866 532.641 132.649 535.181 132.649 C 536.421 132.649 537.511 132.562 538.451 132.389 C 539.385 132.216 540.571 131.842 542.011 131.269 L 542.011 133.069 C 540.785 133.602 539.655 133.966 538.621 134.159 C 537.581 134.352 536.435 134.449 535.181 134.449 Z M 534.601 113.679 C 532.515 113.679 530.838 114.369 529.571 115.749 C 528.305 117.122 527.565 119.109 527.351 121.709 L 540.771 121.709 C 540.771 119.189 540.228 117.222 539.141 115.809 C 538.048 114.389 536.535 113.679 534.601 113.679 ZM 557.404 111.919 C 558.324 111.919 559.31 112.012 560.364 112.199 L 559.984 114.099 C 559.077 113.872 558.137 113.759 557.164 113.759 C 555.317 113.759 553.8 114.546 552.614 116.119 C 551.427 117.686 550.834 119.669 550.834 122.069 L 550.834 134.049 L 548.854 134.049 L 548.854 112.339 L 550.534 112.339 L 550.734 116.259 L 550.874 116.259 C 551.767 114.659 552.72 113.536 553.734 112.889 C 554.747 112.242 555.97 111.919 557.404 111.919 Z" transform="matrix(1, 0, 0, 1, 0, 0)" style="fill: rgb(117, 117, 117); white-space: pre;"/>
</svg>