<?xml version="1.0" encoding="utf-8"?>
<svg viewBox="41.448 -23.523 640.87 513.089" width="640.87" height="513.089" xmlns="http://www.w3.org/2000/svg">
  <defs>
    <clipPath id="Clip0">
      <path d="M 0 0 L 0 1000 L 1000 1000 L 1000 0 L 0 0 Z"/>
    </clipPath>
  </defs>
  <g transform="matrix(1.929455, 0, 0, 1.929455, -38.524044, -266.789948)">
    <path style="fill: rgb(0, 140, 177); fill-rule: nonzero; stroke: none;" d="M 278.861 391.007 L 41.448 391.007 L 41.448 220.745 L 278.861 220.745 L 278.861 391.007 Z" clip-path="url(#Clip0)"/>
    <path style="fill:#ffffff; fill-rule:nonzero;stroke:none;" d="M 165.189 242.109 C 163.298 242.109 161.765 240.576 161.765 238.685 C 161.765 236.794 163.298 235.261 165.189 235.261 C 167.08 235.261 168.613 236.794 168.613 238.685 C 168.613 240.576 167.08 242.109 165.189 242.109 Z M 165.189 231.6 C 161.178 231.6 157.926 234.851 157.926 238.862 C 157.926 241.992 159.909 244.651 162.684 245.672 L 162.684 263.979 L 167.694 263.979 L 167.694 245.672 C 170.469 244.651 172.452 241.992 172.452 238.862 C 172.452 234.851 169.2 231.6 165.189 231.6 Z" clip-path="url(#Clip0)"/>
    <path style="fill:#ffffff; fill-rule:nonzero;stroke:none;" d="M 112.053 251.659 L 112.053 326.032 L 145.607 326.032 L 145.607 310.415 L 184.771 310.415 L 184.771 326.032 L 218.325 326.032 L 218.325 251.659 L 112.053 251.659 Z" clip-path="url(#Clip0)"/>
    <path style="fill:#ffffff; fill-rule:nonzero;stroke:none;" d="M 223.905 306.952 L 106.473 306.952 L 106.473 270.74 L 223.905 270.74 L 223.905 306.952 Z" clip-path="url(#Clip0)"/>
    <path style="fill:#ffffff; fill-rule:nonzero;stroke:none;" d="M 234.959 305.367 L 227.262 305.367 L 227.262 272.325 L 234.959 272.325 L 234.959 305.367 Z" clip-path="url(#Clip0)"/>
    <path style="fill:#ffffff; fill-rule:nonzero;stroke:none;" d="M 103.116 305.367 L 95.419 305.367 L 95.419 272.325 L 103.116 272.325 L 103.116 305.367 Z" clip-path="url(#Clip0)"/>
    <path style="fill:#ffffff; fill-rule:nonzero;stroke:none;" d="M 186.575 335.251 L 143.803 335.251 L 143.803 327.087 L 186.575 327.087 L 186.575 335.251 Z" clip-path="url(#Clip0)"/>
    <path style="fill:#f2bf00; fill-rule:nonzero;stroke:none;" d="M 149.118 290.728 C 149.118 297.707 143.46 303.364 136.481 303.364 C 129.502 303.364 123.845 297.707 123.845 290.728 C 123.845 283.75 129.502 278.092 136.481 278.092 C 143.46 278.092 149.118 283.75 149.118 290.728 Z" clip-path="url(#Clip0)"/>
    <path style="fill:#eb5e59; fill-rule:nonzero;stroke:none;" d="M 141.851 290.728 C 141.851 293.693 139.447 296.097 136.481 296.097 C 133.516 296.097 131.112 293.693 131.112 290.728 C 131.112 287.763 133.516 285.359 136.481 285.359 C 139.447 285.359 141.851 287.763 141.851 290.728 Z" clip-path="url(#Clip0)"/>
    <path style="fill:#f2bf00; fill-rule:nonzero;stroke:none;" d="M 206.533 290.728 C 206.533 297.707 200.876 303.364 193.896 303.364 C 186.918 303.364 181.261 297.707 181.261 290.728 C 181.261 283.75 186.918 278.092 193.896 278.092 C 200.876 278.092 206.533 283.75 206.533 290.728 Z" clip-path="url(#Clip0)"/>
    <path style="fill:#ffffff; fill-rule:nonzero;stroke:none;" d="M 217.001 336.307 L 111.847 336.307 C 106.429 341.725 103.391 344.763 97.973 350.181 L 97.973 392.005 L 125.789 392.005 L 125.789 385.763 L 204.59 385.763 L 204.59 392.005 L 232.406 392.005 L 232.406 351.712 C 226.389 345.696 223.016 342.323 217.001 336.307 Z" clip-path="url(#Clip0)"/>
    <path style="fill:#f2bf00; fill-rule:nonzero;stroke:none;" d="M 199.766 362.179 C 199.766 365.42 197.138 368.048 193.896 368.048 C 190.655 368.048 188.027 365.42 188.027 362.179 C 188.027 358.937 190.655 356.31 193.896 356.31 C 197.138 356.31 199.766 358.937 199.766 362.179 Z" clip-path="url(#Clip0)"/>
    <path style="fill:#eb5e59; fill-rule:nonzero;stroke:none;" d="M 213.938 362.179 C 213.938 365.42 211.311 368.048 208.069 368.048 C 204.828 368.048 202.2 365.42 202.2 362.179 C 202.2 358.937 204.828 356.31 208.069 356.31 C 211.311 356.31 213.938 358.937 213.938 362.179 Z" clip-path="url(#Clip0)"/>
    <path style="fill:#ffffff; fill-rule:nonzero;stroke:none;" d="M 147.829 317.006 L 147.829 312.678 L 182.549 312.678 L 182.549 317.006 L 147.829 317.006 Z" clip-path="url(#Clip0)"/>
    <path style="fill:#ffffff; fill-rule:nonzero;stroke:none;" d="M 147.829 324.115 L 147.829 319.786 L 182.549 319.786 L 182.549 324.115 L 147.829 324.115 Z" clip-path="url(#Clip0)"/>
    <path style="fill:#eb5e59; fill-rule:nonzero;stroke:none;" d="M 199.266 290.728 C 199.266 293.693 196.862 296.097 193.896 296.097 C 190.932 296.097 188.528 293.693 188.528 290.728 C 188.528 287.763 190.932 285.359 193.896 285.359 C 196.862 285.359 199.266 287.763 199.266 290.728 Z" clip-path="url(#Clip0)"/>
  </g>
  <g transform="matrix(1, 0, 0, 1, 183.568665, -53.915272)">
    <path style="fill-rule: nonzero; stroke: none; fill: rgb(242, 242, 242);" d="M 244.235 290.545 L 256.418 268.581 C 261.079 260.178 267.719 255.38 274.685 255.38 L 474.172 255.38 C 487.746 255.38 498.749 237.526 498.749 215.502 L 498.749 70.27 C 498.749 48.247 487.746 30.392 474.172 30.392 L 268.811 30.392 C 255.238 30.392 244.235 48.247 244.235 70.27 L 244.235 290.545 Z" clip-path="url(#Clip0)"/>
    <path class="st1" d="M 370.057 91.444 C 361.953 80.473 349.117 73.804 335.349 73.804 C 311.47 73.804 292.037 93.381 292.037 117.475 C 292.037 157.058 344.313 206.538 370.128 206.538 C 395.872 206.538 448.22 157.058 448.22 117.475 C 448.22 93.309 428.786 73.804 404.907 73.804 C 390.924 73.804 378.16 80.473 370.057 91.444 Z" style="fill: rgb(255, 27, 27);" clip-path="url(#Clip0)"/>
  </g>
</svg>