<?xml version="1.0" encoding="UTF-8" standalone="no"?>
<svg
   xmlns:dc="http://purl.org/dc/elements/1.1/"
   xmlns:cc="http://creativecommons.org/ns#"
   xmlns:rdf="http://www.w3.org/1999/02/22-rdf-syntax-ns#"
   xmlns:svg="http://www.w3.org/2000/svg"
   xmlns="http://www.w3.org/2000/svg"
   xmlns:sodipodi="http://sodipodi.sourceforge.net/DTD/sodipodi-0.dtd"
   xmlns:inkscape="http://www.inkscape.org/namespaces/inkscape"
   viewBox="96 90.203 264.64222 56.470999"
   width="264.64221"
   height="56.471001"
   version="1.1"
   id="svg8"
   sodipodi:docname="messenger.svg"
   inkscape:version="0.92.2 2405546, 2018-03-11">
  <metadata
     id="metadata14">
    <rdf:RDF>
      <cc:Work
         rdf:about="">
        <dc:format>image/svg+xml</dc:format>
        <dc:type
           rdf:resource="http://purl.org/dc/dcmitype/StillImage" />
        <dc:title></dc:title>
      </cc:Work>
    </rdf:RDF>
  </metadata>
  <defs
     id="defs12" />
  <sodipodi:namedview
     pagecolor="#ffffff"
     bordercolor="#666666"
     borderopacity="1"
     objecttolerance="10"
     gridtolerance="10"
     guidetolerance="10"
     inkscape:pageopacity="0"
     inkscape:pageshadow="2"
     inkscape:window-width="1366"
     inkscape:window-height="708"
     id="namedview10"
     showgrid="false"
     showguides="true"
     inkscape:guide-bbox="true"
     inkscape:zoom="2.5293857"
     inkscape:cx="201.75731"
     inkscape:cy="16.409948"
     inkscape:window-x="0"
     inkscape:window-y="0"
     inkscape:window-maximized="1"
     inkscape:current-layer="svg8">
    <sodipodi:guide
       position="67.407674,76.105434"
       orientation="1,0"
       id="guide16"
       inkscape:locked="false" />
  </sodipodi:namedview>
  <g
     id="g6"
     transform="translate(0,-2.797)">
    <path
       d="M 124.061,93 C 108.563,93 96,104.705 96,119.144 c 0,8.227 4.081,15.566 10.458,20.358 v 9.969 l 9.554,-5.277 c 2.55,0.71 5.251,1.094 8.049,1.094 15.498,0 28.061,-11.705 28.061,-26.144 C 152.122,104.705 139.559,93 124.061,93 Z m 2.789,35.207 -7.146,-7.669 -13.944,7.669 15.338,-16.383 7.32,7.668 13.769,-7.668 z"
       id="path2"
       inkscape:connector-curvature="0"
       style="fill:#0084ff" />
    <path
       d="m 177.54121,134.049 h -1.29 l -10.89,-26.96 h -0.16 c 0.106,1.653 0.16,3.343 0.16,5.07 v 21.89 h -1.96 v -29.2 h 3.16 l 10.34,25.69 h 0.12 l 10.35,-25.69 h 3.07 v 29.2 h -2.05 v -22.13 c 0,-1.54 0.08,-3.137 0.24,-4.79 h -0.16 z m 29.415,0.4 c -3.153,0 -5.613,-0.973 -7.38,-2.92 -1.76,-1.94 -2.64,-4.66 -2.64,-8.16 0,-3.467 0.85,-6.24 2.55,-8.32 1.707,-2.087 4.003,-3.13 6.89,-3.13 2.56,0 4.577,0.893 6.05,2.68 1.48,1.78 2.22,4.203 2.22,7.27 v 1.6 h -15.64 c 0.027,2.98 0.723,5.257 2.09,6.83 1.367,1.567 3.32,2.35 5.86,2.35 1.24,0 2.33,-0.087 3.27,-0.26 0.933,-0.173 2.12,-0.547 3.56,-1.12 v 1.8 c -1.227,0.533 -2.357,0.897 -3.39,1.09 -1.04,0.193 -2.187,0.29 -3.44,0.29 z m -0.58,-20.77 c -2.087,0 -3.763,0.69 -5.03,2.07 -1.267,1.373 -2.007,3.36 -2.22,5.96 h 13.42 c 0,-2.52 -0.543,-4.487 -1.63,-5.9 -1.093,-1.42 -2.607,-2.13 -4.54,-2.13 z m 27.715,14.72 c 0,1.94 -0.736,3.433 -2.21,4.48 -1.48,1.047 -3.576,1.57 -6.29,1.57 -2.906,0 -5.21,-0.447 -6.91,-1.34 v -2.14 c 2.18,1.093 4.484,1.64 6.91,1.64 2.14,0 3.767,-0.357 4.88,-1.07 1.114,-0.707 1.67,-1.653 1.67,-2.84 0,-1.093 -0.443,-2.013 -1.33,-2.76 -0.886,-0.747 -2.34,-1.477 -4.36,-2.19 -2.173,-0.787 -3.7,-1.463 -4.58,-2.03 -0.88,-0.567 -1.54,-1.207 -1.98,-1.92 -0.446,-0.713 -0.67,-1.583 -0.67,-2.61 0,-1.62 0.68,-2.903 2.04,-3.85 1.367,-0.947 3.277,-1.42 5.73,-1.42 2.34,0 4.564,0.44 6.67,1.32 l -0.74,1.8 c -2.133,-0.88 -4.11,-1.32 -5.93,-1.32 -1.773,0 -3.18,0.293 -4.22,0.88 -1.04,0.587 -1.56,1.397 -1.56,2.43 0,1.133 0.404,2.04 1.21,2.72 0.807,0.68 2.384,1.44 4.73,2.28 1.954,0.707 3.377,1.34 4.27,1.9 0.894,0.567 1.564,1.21 2.01,1.93 0.44,0.72 0.66,1.567 0.66,2.54 z m 19.051,0 c 0,1.94 -0.737,3.433 -2.21,4.48 -1.48,1.047 -3.577,1.57 -6.29,1.57 -2.907,0 -5.21,-0.447 -6.91,-1.34 v -2.14 c 2.18,1.093 4.483,1.64 6.91,1.64 2.14,0 3.766,-0.357 4.88,-1.07 1.113,-0.707 1.67,-1.653 1.67,-2.84 0,-1.093 -0.444,-2.013 -1.33,-2.76 -0.887,-0.747 -2.34,-1.477 -4.36,-2.19 -2.174,-0.787 -3.7,-1.463 -4.58,-2.03 -0.88,-0.567 -1.54,-1.207 -1.98,-1.92 -0.447,-0.713 -0.67,-1.583 -0.67,-2.61 0,-1.62 0.68,-2.903 2.04,-3.85 1.366,-0.947 3.276,-1.42 5.73,-1.42 2.34,0 4.563,0.44 6.67,1.32 l -0.74,1.8 c -2.134,-0.88 -4.11,-1.32 -5.93,-1.32 -1.774,0 -3.18,0.293 -4.22,0.88 -1.04,0.587 -1.56,1.397 -1.56,2.43 0,1.133 0.403,2.04 1.21,2.72 0.806,0.68 2.383,1.44 4.73,2.28 1.953,0.707 3.376,1.34 4.27,1.9 0.893,0.567 1.563,1.21 2.01,1.93 0.44,0.72 0.66,1.567 0.66,2.54 z m 14.36,6.05 c -3.153,0 -5.613,-0.973 -7.38,-2.92 -1.76,-1.94 -2.64,-4.66 -2.64,-8.16 0,-3.467 0.85,-6.24 2.55,-8.32 1.707,-2.087 4.004,-3.13 6.89,-3.13 2.56,0 4.577,0.893 6.05,2.68 1.48,1.78 2.22,4.203 2.22,7.27 v 1.6 h -15.64 c 0.027,2.98 0.724,5.257 2.09,6.83 1.367,1.567 3.32,2.35 5.86,2.35 1.24,0 2.33,-0.087 3.27,-0.26 0.934,-0.173 2.12,-0.547 3.56,-1.12 v 1.8 c -1.226,0.533 -2.356,0.897 -3.39,1.09 -1.04,0.193 -2.186,0.29 -3.44,0.29 z m -0.58,-20.77 c -2.086,0 -3.763,0.69 -5.03,2.07 -1.266,1.373 -2.006,3.36 -2.22,5.96 h 13.42 c 0,-2.52 -0.543,-4.487 -1.63,-5.9 -1.093,-1.42 -2.606,-2.13 -4.54,-2.13 z m 31.355,20.37 h -1.96 v -14.08 c 0,-2.18 -0.46,-3.767 -1.38,-4.76 -0.913,-0.993 -2.336,-1.49 -4.27,-1.49 -2.593,0 -4.493,0.657 -5.7,1.97 -1.206,1.307 -1.81,3.433 -1.81,6.38 v 11.98 h -1.98 v -21.71 h 1.68 l 0.38,2.98 h 0.12 c 1.414,-2.267 3.924,-3.4 7.53,-3.4 4.927,0 7.39,2.643 7.39,7.93 z m 17.013,-21.71 h 6.95 v 1.38 l -4.49,0.28 c 1.193,1.493 1.79,3.13 1.79,4.91 0,2.093 -0.693,3.787 -2.08,5.08 -1.393,1.3 -3.26,1.95 -5.6,1.95 -0.987,0 -1.68,-0.04 -2.08,-0.12 -0.787,0.413 -1.387,0.9 -1.8,1.46 -0.413,0.56 -0.62,1.153 -0.62,1.78 0,0.693 0.263,1.2 0.79,1.52 0.527,0.313 1.41,0.47 2.65,0.47 h 3.79 c 2.36,0 4.163,0.477 5.41,1.43 1.253,0.953 1.88,2.363 1.88,4.23 0,2.287 -0.93,4.053 -2.79,5.3 -1.853,1.247 -4.497,1.87 -7.93,1.87 -2.733,0 -4.847,-0.527 -6.34,-1.58 -1.5,-1.053 -2.25,-2.52 -2.25,-4.4 0,-1.487 0.463,-2.723 1.39,-3.71 0.92,-0.987 2.173,-1.66 3.76,-2.02 -0.653,-0.28 -1.177,-0.677 -1.57,-1.19 -0.393,-0.507 -0.59,-1.093 -0.59,-1.76 0,-1.453 0.927,-2.733 2.78,-3.84 -1.267,-0.52 -2.253,-1.333 -2.96,-2.44 -0.7,-1.113 -1.05,-2.39 -1.05,-3.83 0,-2.167 0.687,-3.907 2.06,-5.22 1.38,-1.313 3.24,-1.97 5.58,-1.97 1.427,0 2.533,0.14 3.32,0.42 z m -10.62,25.38 c 0,2.987 2.217,4.48 6.65,4.48 5.693,0 8.54,-1.817 8.54,-5.45 0,-1.307 -0.443,-2.253 -1.33,-2.84 -0.893,-0.587 -2.34,-0.88 -4.34,-0.88 h -3.55 c -3.98,0 -5.97,1.563 -5.97,4.69 z m 1.65,-18.61 c 0,1.68 0.51,2.983 1.53,3.91 1.02,0.92 2.38,1.38 4.08,1.38 1.813,0 3.203,-0.457 4.17,-1.37 0.967,-0.92 1.45,-2.253 1.45,-4 0,-1.847 -0.497,-3.233 -1.49,-4.16 -0.993,-0.927 -2.383,-1.39 -4.17,-1.39 -1.727,0 -3.087,0.497 -4.08,1.49 -0.993,0.993 -1.49,2.373 -1.49,4.14 z m 29.137,15.34 c -3.153,0 -5.613,-0.973 -7.38,-2.92 -1.76,-1.94 -2.64,-4.66 -2.64,-8.16 0,-3.467 0.85,-6.24 2.55,-8.32 1.707,-2.087 4.003,-3.13 6.89,-3.13 2.56,0 4.577,0.893 6.05,2.68 1.48,1.78 2.22,4.203 2.22,7.27 v 1.6 h -15.64 c 0.027,2.98 0.723,5.257 2.09,6.83 1.367,1.567 3.32,2.35 5.86,2.35 1.24,0 2.33,-0.087 3.27,-0.26 0.933,-0.173 2.12,-0.547 3.56,-1.12 v 1.8 c -1.227,0.533 -2.357,0.897 -3.39,1.09 -1.04,0.193 -2.187,0.29 -3.44,0.29 z m -0.58,-20.77 c -2.087,0 -3.763,0.69 -5.03,2.07 -1.267,1.373 -2.007,3.36 -2.22,5.96 h 13.42 c 0,-2.52 -0.543,-4.487 -1.63,-5.9 -1.093,-1.42 -2.607,-2.13 -4.54,-2.13 z m 22.805,-1.76 c 0.92,0 1.907,0.093 2.96,0.28 l -0.38,1.9 c -0.907,-0.227 -1.847,-0.34 -2.82,-0.34 -1.847,0 -3.363,0.787 -4.55,2.36 -1.187,1.567 -1.78,3.55 -1.78,5.95 v 11.98 h -1.98 v -21.71 h 1.68 l 0.2,3.92 h 0.14 c 0.893,-1.6 1.847,-2.723 2.86,-3.37 1.013,-0.647 2.237,-0.97 3.67,-0.97 z"
       style="white-space:pre;fill:#757575"
       id="path4"
       inkscape:connector-curvature="0"
       sodipodi:nodetypes="ccccsccccccccccscccscscscscccsccccssccccsscsccscsccscscsccsssccccsscsccscsccscscsccsssccccsscscscscccsccccssccccsccscscsccccccsscccccscscsscsscscscscccsccscscssscsssscscsssssscscscscccsccccssccccssccscsccccccss" />
  </g>
</svg>
