<?xml version="1.0" encoding="utf-8"?>
<svg viewBox="96 90.203 452.188 59.268" width="452.188" height="59.268" xmlns="http://www.w3.org/2000/svg">
  <g>
    <path d="M 124.061 93 C 108.563 93 96 104.705 96 119.144 C 96 127.371 100.081 134.71 106.458 139.502 L 106.458 149.471 L 116.012 144.194 C 118.562 144.904 121.263 145.288 124.061 145.288 C 139.559 145.288 152.122 133.583 152.122 119.144 C 152.122 104.705 139.559 93 124.061 93 Z M 126.85 128.207 L 119.704 120.538 L 105.76 128.207 L 121.098 111.824 L 128.418 119.492 L 142.187 111.824 L 126.85 128.207 Z" fill="#0084ff"/>
    <path d="M 165.459 121.009 L 165.459 134.049 L 163.419 134.049 L 163.419 104.849 L 179.419 104.849 L 179.419 106.729 L 165.459 106.729 L 165.459 119.109 L 178.639 119.109 L 178.639 121.009 L 165.459 121.009 ZM 198.087 134.049 L 196.637 134.049 L 196.137 130.619 L 195.977 130.619 C 194.884 132.012 193.761 132.999 192.607 133.579 C 191.454 134.159 190.094 134.449 188.527 134.449 C 186.394 134.449 184.734 133.902 183.547 132.809 C 182.367 131.716 181.777 130.206 181.777 128.279 C 181.777 126.159 182.657 124.516 184.417 123.349 C 186.184 122.176 188.737 121.556 192.077 121.489 L 196.217 121.369 L 196.217 119.929 C 196.217 117.869 195.797 116.312 194.957 115.259 C 194.117 114.206 192.764 113.679 190.897 113.679 C 188.891 113.679 186.807 114.239 184.647 115.359 L 183.907 113.639 C 186.294 112.519 188.651 111.959 190.977 111.959 C 193.364 111.959 195.147 112.579 196.327 113.819 C 197.501 115.059 198.087 116.989 198.087 119.609 L 198.087 134.049 Z M 188.647 132.649 C 190.961 132.649 192.787 131.986 194.127 130.659 C 195.467 129.339 196.137 127.499 196.137 125.139 L 196.137 123.009 L 192.337 123.169 C 189.291 123.316 187.117 123.789 185.817 124.589 C 184.517 125.396 183.867 126.652 183.867 128.359 C 183.867 129.719 184.284 130.772 185.117 131.519 C 185.951 132.272 187.127 132.649 188.647 132.649 ZM 213.784 134.449 C 210.684 134.449 208.254 133.469 206.494 131.509 C 204.74 129.556 203.864 126.829 203.864 123.329 C 203.864 119.729 204.774 116.929 206.594 114.929 C 208.42 112.922 210.917 111.919 214.084 111.919 C 215.964 111.919 217.76 112.246 219.474 112.899 L 218.934 114.659 C 217.06 114.032 215.43 113.719 214.044 113.719 C 211.384 113.719 209.367 114.542 207.994 116.189 C 206.62 117.829 205.934 120.196 205.934 123.289 C 205.934 126.216 206.62 128.509 207.994 130.169 C 209.367 131.822 211.284 132.649 213.744 132.649 C 215.717 132.649 217.547 132.296 219.234 131.589 L 219.234 133.429 C 217.854 134.109 216.037 134.449 213.784 134.449 ZM 233.314 134.449 C 230.16 134.449 227.7 133.476 225.934 131.529 C 224.174 129.589 223.294 126.869 223.294 123.369 C 223.294 119.902 224.144 117.129 225.844 115.049 C 227.55 112.962 229.847 111.919 232.734 111.919 C 235.294 111.919 237.31 112.812 238.784 114.599 C 240.264 116.379 241.004 118.802 241.004 121.869 L 241.004 123.469 L 225.364 123.469 C 225.39 126.449 226.087 128.726 227.454 130.299 C 228.82 131.866 230.774 132.649 233.314 132.649 C 234.554 132.649 235.644 132.562 236.584 132.389 C 237.517 132.216 238.704 131.842 240.144 131.269 L 240.144 133.069 C 238.917 133.602 237.787 133.966 236.754 134.159 C 235.714 134.352 234.567 134.449 233.314 134.449 Z M 232.734 113.679 C 230.647 113.679 228.97 114.369 227.704 115.749 C 226.437 117.122 225.697 119.109 225.484 121.709 L 238.904 121.709 C 238.904 119.189 238.36 117.222 237.274 115.809 C 236.18 114.389 234.667 113.679 232.734 113.679 ZM 256.159 111.919 C 259.192 111.919 261.479 112.876 263.019 114.789 C 264.559 116.696 265.329 119.489 265.329 123.169 C 265.329 126.776 264.519 129.556 262.899 131.509 C 261.279 133.469 259.005 134.449 256.079 134.449 C 254.532 134.449 253.142 134.129 251.909 133.489 C 250.669 132.849 249.689 131.942 248.969 130.769 L 248.789 130.769 L 248.229 134.049 L 246.989 134.049 L 246.989 102.979 L 248.969 102.979 L 248.969 110.779 C 248.969 111.952 248.942 113.032 248.889 114.019 L 248.829 115.719 L 248.969 115.719 C 249.795 114.412 250.792 113.452 251.959 112.839 C 253.119 112.226 254.519 111.919 256.159 111.919 Z M 256.119 113.719 C 253.565 113.719 251.735 114.452 250.629 115.919 C 249.522 117.379 248.969 119.796 248.969 123.169 L 248.969 123.509 C 248.969 126.782 249.545 129.132 250.699 130.559 C 251.852 131.979 253.645 132.689 256.079 132.689 C 258.452 132.689 260.235 131.862 261.429 130.209 C 262.629 128.549 263.229 126.189 263.229 123.129 C 263.229 116.856 260.859 113.719 256.119 113.719 ZM 289.291 123.169 C 289.291 126.709 288.431 129.472 286.711 131.459 C 284.998 133.452 282.628 134.449 279.601 134.449 C 277.701 134.449 276.024 133.989 274.571 133.069 C 273.118 132.149 272.004 130.832 271.231 129.119 C 270.464 127.399 270.081 125.416 270.081 123.169 C 270.081 119.622 270.938 116.862 272.651 114.889 C 274.371 112.909 276.728 111.919 279.721 111.919 C 282.708 111.919 285.048 112.922 286.741 114.929 C 288.441 116.929 289.291 119.676 289.291 123.169 Z M 272.151 123.169 C 272.151 126.149 272.808 128.476 274.121 130.149 C 275.434 131.816 277.288 132.649 279.681 132.649 C 282.081 132.649 283.934 131.816 285.241 130.149 C 286.554 128.476 287.211 126.149 287.211 123.169 C 287.211 120.169 286.548 117.846 285.221 116.199 C 283.901 114.546 282.041 113.719 279.641 113.719 C 277.248 113.719 275.401 114.542 274.101 116.189 C 272.801 117.829 272.151 120.156 272.151 123.169 ZM 313.254 123.169 C 313.254 126.709 312.394 129.472 310.674 131.459 C 308.961 133.452 306.591 134.449 303.564 134.449 C 301.664 134.449 299.987 133.989 298.534 133.069 C 297.081 132.149 295.967 130.832 295.194 129.119 C 294.427 127.399 294.044 125.416 294.044 123.169 C 294.044 119.622 294.901 116.862 296.614 114.889 C 298.334 112.909 300.691 111.919 303.684 111.919 C 306.671 111.919 309.011 112.922 310.704 114.929 C 312.404 116.929 313.254 119.676 313.254 123.169 Z M 296.114 123.169 C 296.114 126.149 296.771 128.476 298.084 130.149 C 299.397 131.816 301.251 132.649 303.644 132.649 C 306.044 132.649 307.897 131.816 309.204 130.149 C 310.517 128.476 311.174 126.149 311.174 123.169 C 311.174 120.169 310.511 117.846 309.184 116.199 C 307.864 114.546 306.004 113.719 303.604 113.719 C 301.211 113.719 299.364 114.542 298.064 116.189 C 296.764 117.829 296.114 120.156 296.114 123.169 ZM 321.097 124.519 L 321.197 124.519 L 332.287 112.339 L 334.677 112.339 L 326.127 121.609 L 335.417 134.049 L 333.037 134.049 L 324.797 123.089 L 321.237 126.319 L 321.237 134.049 L 319.257 134.049 L 319.257 102.979 L 321.237 102.979 L 321.237 118.549 L 321.097 124.519 ZM 364.31 134.049 L 363.02 134.049 L 352.13 107.089 L 351.97 107.089 C 352.076 108.742 352.13 110.432 352.13 112.159 L 352.13 134.049 L 350.17 134.049 L 350.17 104.849 L 353.33 104.849 L 363.67 130.539 L 363.79 130.539 L 374.14 104.849 L 377.21 104.849 L 377.21 134.049 L 375.16 134.049 L 375.16 111.919 C 375.16 110.379 375.24 108.782 375.4 107.129 L 375.24 107.129 L 364.31 134.049 ZM 393.725 134.449 C 390.572 134.449 388.112 133.476 386.345 131.529 C 384.585 129.589 383.705 126.869 383.705 123.369 C 383.705 119.902 384.555 117.129 386.255 115.049 C 387.962 112.962 390.258 111.919 393.145 111.919 C 395.705 111.919 397.722 112.812 399.195 114.599 C 400.675 116.379 401.415 118.802 401.415 121.869 L 401.415 123.469 L 385.775 123.469 C 385.802 126.449 386.498 128.726 387.865 130.299 C 389.232 131.866 391.185 132.649 393.725 132.649 C 394.965 132.649 396.055 132.562 396.995 132.389 C 397.928 132.216 399.115 131.842 400.555 131.269 L 400.555 133.069 C 399.328 133.602 398.198 133.966 397.165 134.159 C 396.125 134.352 394.978 134.449 393.725 134.449 Z M 393.145 113.679 C 391.058 113.679 389.382 114.369 388.115 115.749 C 386.848 117.122 386.108 119.109 385.895 121.709 L 399.315 121.709 C 399.315 119.189 398.772 117.222 397.685 115.809 C 396.592 114.389 395.078 113.679 393.145 113.679 ZM 420.86 128.399 C 420.86 130.339 420.124 131.832 418.65 132.879 C 417.17 133.926 415.074 134.449 412.36 134.449 C 409.454 134.449 407.15 134.002 405.45 133.109 L 405.45 130.969 C 407.63 132.062 409.934 132.609 412.36 132.609 C 414.5 132.609 416.127 132.252 417.24 131.539 C 418.354 130.832 418.91 129.886 418.91 128.699 C 418.91 127.606 418.467 126.686 417.58 125.939 C 416.694 125.192 415.24 124.462 413.22 123.749 C 411.047 122.962 409.52 122.286 408.64 121.719 C 407.76 121.152 407.1 120.512 406.66 119.799 C 406.214 119.086 405.99 118.216 405.99 117.189 C 405.99 115.569 406.67 114.286 408.03 113.339 C 409.397 112.392 411.307 111.919 413.76 111.919 C 416.1 111.919 418.324 112.359 420.43 113.239 L 419.69 115.039 C 417.557 114.159 415.58 113.719 413.76 113.719 C 411.987 113.719 410.58 114.012 409.54 114.599 C 408.5 115.186 407.98 115.996 407.98 117.029 C 407.98 118.162 408.384 119.069 409.19 119.749 C 409.997 120.429 411.574 121.189 413.92 122.029 C 415.874 122.736 417.297 123.369 418.19 123.929 C 419.084 124.496 419.754 125.139 420.2 125.859 C 420.64 126.579 420.86 127.426 420.86 128.399 ZM 439.911 128.399 C 439.911 130.339 439.174 131.832 437.701 132.879 C 436.221 133.926 434.124 134.449 431.411 134.449 C 428.504 134.449 426.201 134.002 424.501 133.109 L 424.501 130.969 C 426.681 132.062 428.984 132.609 431.411 132.609 C 433.551 132.609 435.177 132.252 436.291 131.539 C 437.404 130.832 437.961 129.886 437.961 128.699 C 437.961 127.606 437.517 126.686 436.631 125.939 C 435.744 125.192 434.291 124.462 432.271 123.749 C 430.097 122.962 428.571 122.286 427.691 121.719 C 426.811 121.152 426.151 120.512 425.711 119.799 C 425.264 119.086 425.041 118.216 425.041 117.189 C 425.041 115.569 425.721 114.286 427.081 113.339 C 428.447 112.392 430.357 111.919 432.811 111.919 C 435.151 111.919 437.374 112.359 439.481 113.239 L 438.741 115.039 C 436.607 114.159 434.631 113.719 432.811 113.719 C 431.037 113.719 429.631 114.012 428.591 114.599 C 427.551 115.186 427.031 115.996 427.031 117.029 C 427.031 118.162 427.434 119.069 428.241 119.749 C 429.047 120.429 430.624 121.189 432.971 122.029 C 434.924 122.736 436.347 123.369 437.241 123.929 C 438.134 124.496 438.804 125.139 439.251 125.859 C 439.691 126.579 439.911 127.426 439.911 128.399 ZM 454.271 134.449 C 451.118 134.449 448.658 133.476 446.891 131.529 C 445.131 129.589 444.251 126.869 444.251 123.369 C 444.251 119.902 445.101 117.129 446.801 115.049 C 448.508 112.962 450.805 111.919 453.691 111.919 C 456.251 111.919 458.268 112.812 459.741 114.599 C 461.221 116.379 461.961 118.802 461.961 121.869 L 461.961 123.469 L 446.321 123.469 C 446.348 126.449 447.045 128.726 448.411 130.299 C 449.778 131.866 451.731 132.649 454.271 132.649 C 455.511 132.649 456.601 132.562 457.541 132.389 C 458.475 132.216 459.661 131.842 461.101 131.269 L 461.101 133.069 C 459.875 133.602 458.745 133.966 457.711 134.159 C 456.671 134.352 455.525 134.449 454.271 134.449 Z M 453.691 113.679 C 451.605 113.679 449.928 114.369 448.661 115.749 C 447.395 117.122 446.655 119.109 446.441 121.709 L 459.861 121.709 C 459.861 119.189 459.318 117.222 458.231 115.809 C 457.138 114.389 455.625 113.679 453.691 113.679 ZM 485.046 134.049 L 483.086 134.049 L 483.086 119.969 C 483.086 117.789 482.626 116.202 481.706 115.209 C 480.793 114.216 479.37 113.719 477.436 113.719 C 474.843 113.719 472.943 114.376 471.736 115.689 C 470.53 116.996 469.926 119.122 469.926 122.069 L 469.926 134.049 L 467.946 134.049 L 467.946 112.339 L 469.626 112.339 L 470.006 115.319 L 470.126 115.319 C 471.54 113.052 474.05 111.919 477.656 111.919 C 482.583 111.919 485.046 114.562 485.046 119.849 L 485.046 134.049 ZM 502.059 112.339 L 509.009 112.339 L 509.009 113.719 L 504.519 113.999 C 505.712 115.492 506.309 117.129 506.309 118.909 C 506.309 121.002 505.616 122.696 504.229 123.989 C 502.836 125.289 500.969 125.939 498.629 125.939 C 497.642 125.939 496.949 125.899 496.549 125.819 C 495.762 126.232 495.162 126.719 494.749 127.279 C 494.336 127.839 494.129 128.432 494.129 129.059 C 494.129 129.752 494.392 130.259 494.919 130.579 C 495.446 130.892 496.329 131.049 497.569 131.049 L 501.359 131.049 C 503.719 131.049 505.522 131.526 506.769 132.479 C 508.022 133.432 508.649 134.842 508.649 136.709 C 508.649 138.996 507.719 140.762 505.859 142.009 C 504.006 143.256 501.362 143.879 497.929 143.879 C 495.196 143.879 493.082 143.352 491.589 142.299 C 490.089 141.246 489.339 139.779 489.339 137.899 C 489.339 136.412 489.802 135.176 490.729 134.189 C 491.649 133.202 492.902 132.529 494.489 132.169 C 493.836 131.889 493.312 131.492 492.919 130.979 C 492.526 130.472 492.329 129.886 492.329 129.219 C 492.329 127.766 493.256 126.486 495.109 125.379 C 493.842 124.859 492.856 124.046 492.149 122.939 C 491.449 121.826 491.099 120.549 491.099 119.109 C 491.099 116.942 491.786 115.202 493.159 113.889 C 494.539 112.576 496.399 111.919 498.739 111.919 C 500.166 111.919 501.272 112.059 502.059 112.339 Z M 491.439 137.719 C 491.439 140.706 493.656 142.199 498.089 142.199 C 503.782 142.199 506.629 140.382 506.629 136.749 C 506.629 135.442 506.186 134.496 505.299 133.909 C 504.406 133.322 502.959 133.029 500.959 133.029 L 497.409 133.029 C 493.429 133.029 491.439 134.592 491.439 137.719 Z M 493.089 119.109 C 493.089 120.789 493.599 122.092 494.619 123.019 C 495.639 123.939 496.999 124.399 498.699 124.399 C 500.512 124.399 501.902 123.942 502.869 123.029 C 503.836 122.109 504.319 120.776 504.319 119.029 C 504.319 117.182 503.822 115.796 502.829 114.869 C 501.836 113.942 500.446 113.479 498.659 113.479 C 496.932 113.479 495.572 113.976 494.579 114.969 C 493.586 115.962 493.089 117.342 493.089 119.109 ZM 522.226 134.449 C 519.073 134.449 516.613 133.476 514.846 131.529 C 513.086 129.589 512.206 126.869 512.206 123.369 C 512.206 119.902 513.056 117.129 514.756 115.049 C 516.463 112.962 518.759 111.919 521.646 111.919 C 524.206 111.919 526.223 112.812 527.696 114.599 C 529.176 116.379 529.916 118.802 529.916 121.869 L 529.916 123.469 L 514.276 123.469 C 514.303 126.449 514.999 128.726 516.366 130.299 C 517.733 131.866 519.686 132.649 522.226 132.649 C 523.466 132.649 524.556 132.562 525.496 132.389 C 526.429 132.216 527.616 131.842 529.056 131.269 L 529.056 133.069 C 527.829 133.602 526.699 133.966 525.666 134.159 C 524.626 134.352 523.479 134.449 522.226 134.449 Z M 521.646 113.679 C 519.559 113.679 517.883 114.369 516.616 115.749 C 515.349 117.122 514.609 119.109 514.396 121.709 L 527.816 121.709 C 527.816 119.189 527.273 117.222 526.186 115.809 C 525.093 114.389 523.579 113.679 521.646 113.679 ZM 544.451 111.919 C 545.371 111.919 546.358 112.012 547.411 112.199 L 547.031 114.099 C 546.124 113.872 545.184 113.759 544.211 113.759 C 542.364 113.759 540.848 114.546 539.661 116.119 C 538.474 117.686 537.881 119.669 537.881 122.069 L 537.881 134.049 L 535.901 134.049 L 535.901 112.339 L 537.581 112.339 L 537.781 116.259 L 537.921 116.259 C 538.814 114.659 539.768 113.536 540.781 112.889 C 541.794 112.242 543.018 111.919 544.451 111.919 Z" transform="matrix(1, 0, 0, 1, 0, 0)" style="fill: rgb(117, 117, 117); white-space: pre;"/>
  </g>
</svg>