<?xml version="1.0" encoding="utf-8"?>
<svg viewBox="100.592 90.953 241.877 57.278" width="241.877" height="57.278" xmlns="http://www.w3.org/2000/svg">
  <linearGradient id="path2995-1-0_1_" gradientUnits="userSpaceOnUse" x1="-683.305" y1="534.845" x2="-693.305" y2="511.512" gradientTransform="matrix(6, 0, 0, -6, 4255, 3247)">
    <stop offset="0" stop-color="#37aee2"/>
    <stop offset="1" stop-color="#1e96c8"/>
  </linearGradient>
  <linearGradient id="path2991_1_" gradientUnits="userSpaceOnUse" x1="128.991" y1="118.245" x2="153.991" y2="78.245" gradientTransform="matrix(1, 0, 0, -1, 0, 242)">
    <stop offset="0" stop-color="#eff7fc"/>
    <stop offset="1" stop-color="#fff"/>
  </linearGradient>
  <path d="M 187.861 106.873 L 187.861 133.423 L 185.861 133.423 L 185.861 106.873 L 176.621 106.873 L 176.621 105.013 L 197.091 105.013 L 197.091 106.873 L 187.861 106.873 ZM 209.353 133.813 C 206.279 133.813 203.886 132.866 202.173 130.973 C 200.453 129.08 199.593 126.43 199.593 123.023 C 199.593 119.656 200.423 116.96 202.083 114.933 C 203.743 112.906 205.976 111.893 208.783 111.893 C 211.276 111.893 213.239 112.76 214.673 114.493 C 216.113 116.233 216.833 118.593 216.833 121.573 L 216.833 123.123 L 201.613 123.123 C 201.639 126.023 202.316 128.24 203.643 129.773 C 204.976 131.3 206.879 132.063 209.353 132.063 C 210.559 132.063 211.619 131.98 212.533 131.813 C 213.446 131.64 214.599 131.276 215.993 130.723 L 215.993 132.473 C 214.806 132.993 213.706 133.346 212.693 133.533 C 211.686 133.72 210.573 133.813 209.353 133.813 Z M 208.783 113.603 C 206.749 113.603 205.119 114.273 203.893 115.613 C 202.659 116.953 201.939 118.886 201.733 121.413 L 214.793 121.413 C 214.793 118.966 214.263 117.053 213.203 115.673 C 212.136 114.293 210.663 113.603 208.783 113.603 ZM 224.585 103.183 L 224.585 133.423 L 222.665 133.423 L 222.665 103.183 L 224.585 103.183 ZM 240.193 133.813 C 237.119 133.813 234.726 132.866 233.013 130.973 C 231.293 129.08 230.433 126.43 230.433 123.023 C 230.433 119.656 231.263 116.96 232.923 114.933 C 234.583 112.906 236.816 111.893 239.623 111.893 C 242.116 111.893 244.079 112.76 245.513 114.493 C 246.953 116.233 247.673 118.593 247.673 121.573 L 247.673 123.123 L 232.453 123.123 C 232.479 126.023 233.156 128.24 234.483 129.773 C 235.816 131.3 237.719 132.063 240.193 132.063 C 241.399 132.063 242.459 131.98 243.373 131.813 C 244.286 131.64 245.439 131.276 246.833 130.723 L 246.833 132.473 C 245.646 132.993 244.546 133.346 243.533 133.533 C 242.526 133.72 241.413 133.813 240.193 133.813 Z M 239.623 113.603 C 237.589 113.603 235.959 114.273 234.733 115.613 C 233.499 116.953 232.779 118.886 232.573 121.413 L 245.633 121.413 C 245.633 118.966 245.103 117.053 244.043 115.673 C 242.976 114.293 241.503 113.603 239.623 113.603 ZM 263.215 112.303 L 269.985 112.303 L 269.985 113.643 L 265.605 113.913 C 266.772 115.366 267.355 116.96 267.355 118.693 C 267.355 120.726 266.678 122.376 265.325 123.643 C 263.972 124.903 262.155 125.533 259.875 125.533 C 258.915 125.533 258.242 125.493 257.855 125.413 C 257.088 125.82 256.505 126.293 256.105 126.833 C 255.705 127.38 255.505 127.956 255.505 128.563 C 255.505 129.236 255.762 129.73 256.275 130.043 C 256.782 130.35 257.638 130.503 258.845 130.503 L 262.535 130.503 C 264.828 130.503 266.585 130.966 267.805 131.893 C 269.025 132.82 269.635 134.19 269.635 136.003 C 269.635 138.236 268.732 139.956 266.925 141.163 C 265.112 142.376 262.535 142.983 259.195 142.983 C 256.542 142.983 254.485 142.473 253.025 141.453 C 251.565 140.426 250.835 139 250.835 137.173 C 250.835 135.72 251.288 134.516 252.195 133.563 C 253.095 132.603 254.315 131.946 255.855 131.593 C 255.222 131.326 254.712 130.943 254.325 130.443 C 253.945 129.943 253.755 129.37 253.755 128.723 C 253.755 127.31 254.655 126.066 256.455 124.993 C 255.222 124.486 254.262 123.693 253.575 122.613 C 252.888 121.526 252.545 120.283 252.545 118.883 C 252.545 116.776 253.218 115.083 254.565 113.803 C 255.905 112.53 257.715 111.893 259.995 111.893 C 261.382 111.893 262.455 112.03 263.215 112.303 Z M 252.885 137.003 C 252.885 139.903 255.042 141.353 259.355 141.353 C 264.895 141.353 267.665 139.583 267.665 136.043 C 267.665 134.776 267.232 133.856 266.365 133.283 C 265.498 132.716 264.092 132.433 262.145 132.433 L 258.695 132.433 C 254.822 132.433 252.885 133.956 252.885 137.003 Z M 254.495 118.883 C 254.495 120.516 254.988 121.783 255.975 122.683 C 256.968 123.583 258.295 124.033 259.955 124.033 C 261.715 124.033 263.065 123.586 264.005 122.693 C 264.945 121.8 265.415 120.506 265.415 118.813 C 265.415 117.006 264.932 115.653 263.965 114.753 C 262.998 113.853 261.648 113.403 259.915 113.403 C 258.228 113.403 256.905 113.886 255.945 114.853 C 254.978 115.82 254.495 117.163 254.495 118.883 ZM 282.628 111.893 C 283.528 111.893 284.488 111.983 285.508 112.163 L 285.138 114.013 C 284.258 113.793 283.344 113.683 282.398 113.683 C 280.598 113.683 279.121 114.446 277.968 115.973 C 276.814 117.5 276.238 119.43 276.238 121.763 L 276.238 133.423 L 274.318 133.423 L 274.318 112.303 L 275.948 112.303 L 276.138 116.103 L 276.278 116.103 C 277.144 114.55 278.071 113.46 279.058 112.833 C 280.044 112.206 281.234 111.893 282.628 111.893 ZM 304.046 133.423 L 302.626 133.423 L 302.146 130.083 L 301.986 130.083 C 300.926 131.443 299.836 132.403 298.716 132.963 C 297.596 133.53 296.269 133.813 294.736 133.813 C 292.662 133.813 291.049 133.283 289.896 132.223 C 288.742 131.156 288.166 129.683 288.166 127.803 C 288.166 125.743 289.026 124.143 290.746 123.003 C 292.459 121.863 294.942 121.263 298.196 121.203 L 302.216 121.083 L 302.216 119.683 C 302.216 117.676 301.809 116.16 300.996 115.133 C 300.182 114.113 298.869 113.603 297.056 113.603 C 295.096 113.603 293.066 114.146 290.966 115.233 L 290.246 113.563 C 292.566 112.476 294.859 111.933 297.126 111.933 C 299.446 111.933 301.179 112.533 302.326 113.733 C 303.472 114.94 304.046 116.82 304.046 119.373 L 304.046 133.423 Z M 294.856 132.063 C 297.109 132.063 298.886 131.42 300.186 130.133 C 301.492 128.84 302.146 127.046 302.146 124.753 L 302.146 122.673 L 298.446 122.833 C 295.479 122.973 293.366 123.436 292.106 124.223 C 290.846 125.003 290.216 126.223 290.216 127.883 C 290.216 129.203 290.619 130.23 291.426 130.963 C 292.232 131.696 293.376 132.063 294.856 132.063 ZM 339.18 133.423 L 337.28 133.423 L 337.28 119.563 C 337.28 117.503 336.877 116.003 336.07 115.063 C 335.27 114.116 334.04 113.643 332.38 113.643 C 330.22 113.643 328.62 114.236 327.58 115.423 C 326.547 116.616 326.03 118.49 326.03 121.043 L 326.03 133.423 L 324.06 133.423 L 324.06 118.983 C 324.06 115.423 322.43 113.643 319.17 113.643 C 316.95 113.643 315.337 114.286 314.33 115.573 C 313.317 116.86 312.81 118.923 312.81 121.763 L 312.81 133.423 L 310.89 133.423 L 310.89 112.303 L 312.48 112.303 L 312.89 115.193 L 313.01 115.193 C 313.59 114.146 314.417 113.333 315.49 112.753 C 316.57 112.18 317.757 111.893 319.05 111.893 C 322.377 111.893 324.514 113.143 325.46 115.643 L 325.54 115.643 C 326.227 114.436 327.15 113.51 328.31 112.863 C 329.47 112.216 330.787 111.893 332.26 111.893 C 334.567 111.893 336.297 112.506 337.45 113.733 C 338.604 114.966 339.18 116.923 339.18 119.603 L 339.18 133.423 Z" transform="matrix(1, 0, 0, 1, 0, 0)" style="fill: rgb(117, 117, 117); white-space: pre;"/>
  <g transform="matrix(0.237852, 0, 0, 0.237852, 100.591682, 91.146576)">
    <path id="path2995-1-0" class="st0" d="M 240 120 C 240 186.3 186.3 240 120 240 C 53.7 240 0 186.3 0 120 C 0 53.7 53.7 0 120 0 C 186.3 0 240 53.7 240 120 Z" style="fill: url(#path2995-1-0_1_);"/>
    <path id="path2993" class="st1" d="M 98 175 C 94.1 175 94.8 173.5 93.4 169.8 L 82 132.2 L 152.8 88 L 161.1 90.2 L 154.2 109 L 98 175 Z" style="fill: rgb(200, 218, 234);"/>
    <path id="path2989" class="st2" d="M 98 175 C 101 175 102.3 173.6 104 172 C 106.6 169.5 140 137 140 137 L 119.5 132 L 100.5 144 L 98 174 L 98 175 Z" style="fill: rgb(169, 201, 221);"/>
    <path id="path2991" class="st3" d="M 100 144.4 L 148.4 180.1 C 153.9 183.1 157.9 181.6 159.3 175 L 179 82.2 C 181 74.1 175.9 70.5 170.6 72.9 L 55 117.5 C 47.1 120.7 47.2 125.1 53.6 127 L 83.3 136.3 L 152 93 C 155.2 91 158.2 92.1 155.8 94.3 L 100 144.4 Z" style="fill: url(#path2991_1_);"/>
  </g>
</svg>