<?xml version="1.0" encoding="utf-8"?>
<svg viewBox="96.844 90.953 202.187 55.82" width="202.187" height="55.82" xmlns="http://www.w3.org/2000/svg">
  <path d="M 141.569 92.402 L 141.569 92.39 L 144.708 92.39 L 145.855 92.62 C 146.619 92.769 147.314 92.964 147.937 93.206 C 148.561 93.447 149.164 93.729 149.748 94.05 C 150.331 94.372 150.861 94.7 151.335 95.034 C 151.806 95.365 152.228 95.714 152.602 96.084 C 152.973 96.459 153.55 96.555 154.335 96.374 C 155.12 96.193 155.964 95.941 156.87 95.619 C 157.775 95.298 158.671 94.936 159.556 94.533 C 160.441 94.131 160.98 93.875 161.173 93.766 C 161.363 93.654 161.463 93.594 161.476 93.586 L 161.487 93.568 L 161.548 93.537 L 161.608 93.507 L 161.668 93.477 L 161.729 93.447 L 161.741 93.429 L 161.759 93.417 L 161.777 93.404 L 161.789 93.386 L 161.849 93.369 L 161.91 93.356 L 161.898 93.447 L 161.88 93.537 L 161.849 93.628 L 161.82 93.718 L 161.789 93.779 L 161.759 93.839 L 161.729 93.93 C 161.709 93.99 161.688 94.07 161.668 94.171 C 161.648 94.272 161.457 94.674 161.095 95.378 C 160.733 96.082 160.28 96.797 159.737 97.521 C 159.193 98.245 158.707 98.792 158.276 99.162 C 157.842 99.537 157.554 99.798 157.413 99.947 C 157.272 100.101 157.101 100.241 156.9 100.37 L 156.598 100.569 L 156.538 100.599 L 156.478 100.629 L 156.466 100.648 L 156.447 100.66 L 156.429 100.671 L 156.417 100.69 L 156.357 100.72 L 156.297 100.75 L 156.285 100.768 L 156.266 100.78 L 156.248 100.792 L 156.236 100.81 L 156.224 100.829 L 156.206 100.841 L 156.188 100.853 L 156.176 100.87 L 156.478 100.87 L 158.168 100.508 C 159.294 100.267 160.371 99.976 161.397 99.633 L 163.026 99.09 L 163.208 99.03 L 163.298 98.999 L 163.358 98.969 L 163.419 98.939 L 163.479 98.909 L 163.539 98.879 L 163.66 98.861 L 163.781 98.849 L 163.781 98.969 L 163.751 98.982 L 163.72 98.999 L 163.708 99.017 L 163.691 99.03 L 163.673 99.042 L 163.66 99.06 L 163.648 99.078 L 163.63 99.09 L 163.612 99.102 L 163.6 99.12 L 163.588 99.139 L 163.57 99.151 L 163.539 99.211 L 163.509 99.271 L 163.491 99.284 C 163.483 99.295 163.228 99.637 162.725 100.309 C 162.222 100.986 161.95 101.327 161.91 101.335 C 161.87 101.348 161.813 101.408 161.741 101.517 C 161.672 101.629 161.246 102.078 160.462 102.862 C 159.677 103.647 158.908 104.345 158.156 104.957 C 157.399 105.573 157.017 106.33 157.009 107.226 C 156.997 108.12 156.95 109.13 156.87 110.257 C 156.789 111.383 156.638 112.6 156.417 113.908 C 156.196 115.216 155.854 116.694 155.391 118.344 C 154.928 119.994 154.365 121.604 153.702 123.173 C 153.037 124.742 152.343 126.15 151.619 127.398 C 150.895 128.645 150.231 129.702 149.627 130.566 C 149.024 131.432 148.41 132.247 147.786 133.011 C 147.162 133.776 146.374 134.637 145.42 135.595 C 144.462 136.548 143.939 137.072 143.851 137.164 C 143.759 137.252 143.364 137.583 142.668 138.154 C 141.976 138.729 141.231 139.305 140.435 139.88 C 139.642 140.452 138.913 140.928 138.249 141.311 C 137.586 141.692 136.785 142.129 135.847 142.62 C 134.914 143.115 133.904 143.574 132.817 143.997 C 131.731 144.419 130.584 144.811 129.377 145.173 C 128.17 145.535 127.003 145.818 125.876 146.018 C 124.75 146.219 123.472 146.391 122.044 146.531 L 119.901 146.743 L 119.901 146.773 L 115.978 146.773 L 115.978 146.743 L 115.465 146.713 C 115.123 146.692 114.841 146.672 114.62 146.653 C 114.398 146.632 113.563 146.521 112.115 146.32 C 110.666 146.119 109.53 145.918 108.705 145.717 C 107.879 145.516 106.652 145.133 105.022 144.57 C 103.393 144.007 101.999 143.436 100.84 142.861 C 99.685 142.29 98.961 141.928 98.667 141.775 C 98.377 141.626 98.051 141.441 97.689 141.22 L 97.146 140.888 L 97.133 140.87 L 97.115 140.858 L 97.098 140.846 L 97.086 140.828 L 97.025 140.798 L 96.964 140.767 L 96.953 140.749 L 96.935 140.737 L 96.917 140.725 L 96.904 140.707 L 96.893 140.689 L 96.874 140.677 L 96.844 140.677 L 96.844 140.556 L 96.904 140.568 L 96.964 140.586 L 97.236 140.616 C 97.417 140.636 97.91 140.667 98.715 140.707 C 99.52 140.747 100.375 140.747 101.28 140.707 C 102.186 140.667 103.111 140.576 104.057 140.435 C 105.002 140.294 106.119 140.053 107.407 139.711 C 108.694 139.369 109.877 138.962 110.956 138.492 C 112.03 138.017 112.794 137.663 113.249 137.43 C 113.7 137.2 114.388 136.774 115.313 136.15 L 116.702 135.215 L 116.714 135.196 L 116.732 135.184 L 116.75 135.173 L 116.762 135.154 L 116.774 135.136 L 116.793 135.124 L 116.811 135.112 L 116.822 135.093 L 116.883 135.075 L 116.943 135.064 L 116.955 135.003 L 116.973 134.943 L 116.992 134.93 L 117.004 134.912 L 116.521 134.882 C 116.199 134.862 115.887 134.842 115.585 134.822 C 115.284 134.802 114.811 134.711 114.167 134.551 C 113.523 134.39 112.829 134.148 112.085 133.826 C 111.34 133.505 110.616 133.122 109.911 132.68 C 109.207 132.236 108.698 131.869 108.384 131.575 C 108.074 131.285 107.673 130.875 107.178 130.344 C 106.687 129.808 106.26 129.259 105.898 128.695 C 105.535 128.132 105.189 127.482 104.86 126.746 L 104.359 125.648 L 104.329 125.557 L 104.298 125.466 L 104.28 125.406 L 104.268 125.346 L 104.359 125.358 L 104.449 125.376 L 105.113 125.466 C 105.556 125.527 106.25 125.547 107.195 125.527 C 108.141 125.507 108.795 125.466 109.157 125.406 C 109.519 125.346 109.74 125.305 109.821 125.286 L 109.942 125.255 L 110.093 125.225 L 110.244 125.195 L 110.255 125.177 L 110.273 125.164 L 110.292 125.153 L 110.304 125.135 L 110.183 125.104 L 110.062 125.075 L 109.942 125.044 L 109.821 125.014 L 109.7 124.984 C 109.62 124.964 109.479 124.924 109.278 124.863 C 109.077 124.802 108.534 124.581 107.648 124.199 C 106.763 123.817 106.059 123.444 105.535 123.082 C 105.011 122.719 104.511 122.322 104.039 121.893 C 103.568 121.459 103.051 120.899 102.488 120.215 C 101.925 119.531 101.421 118.737 100.979 117.831 C 100.536 116.926 100.204 116.06 99.982 115.236 C 99.763 114.416 99.617 113.577 99.548 112.731 L 99.439 111.463 L 99.5 111.475 L 99.56 111.494 L 99.62 111.524 L 99.681 111.554 L 99.742 111.584 L 99.802 111.615 L 100.737 112.037 C 101.361 112.318 102.136 112.56 103.061 112.761 C 103.986 112.963 104.54 113.073 104.721 113.093 L 104.993 113.124 L 105.535 113.124 L 105.524 113.106 L 105.506 113.093 L 105.487 113.081 L 105.475 113.063 L 105.463 113.045 L 105.445 113.033 L 105.427 113.021 L 105.415 113.003 L 105.355 112.973 L 105.294 112.942 L 105.282 112.924 L 105.264 112.912 L 105.246 112.9 L 105.233 112.882 L 105.173 112.852 L 105.113 112.821 L 105.101 112.803 C 105.089 112.796 104.916 112.667 104.582 112.417 C 104.252 112.164 103.906 111.836 103.544 111.433 C 103.182 111.031 102.819 110.608 102.458 110.166 C 102.094 109.722 101.771 109.247 101.491 108.748 C 101.21 108.245 100.912 107.605 100.598 106.828 C 100.289 106.055 100.054 105.277 99.892 104.493 C 99.731 103.708 99.641 102.933 99.62 102.168 C 99.601 101.404 99.62 100.75 99.681 100.207 C 99.742 99.664 99.862 99.05 100.043 98.366 C 100.224 97.682 100.486 96.958 100.828 96.193 L 101.341 95.046 L 101.371 94.956 L 101.401 94.865 L 101.419 94.853 L 101.431 94.835 L 101.444 94.817 L 101.462 94.805 L 101.48 94.817 L 101.491 94.835 L 101.504 94.853 L 101.522 94.865 L 101.54 94.877 L 101.552 94.895 L 101.564 94.913 L 101.582 94.926 L 101.613 94.986 L 101.642 95.046 L 101.661 95.058 L 101.673 95.077 L 102.488 95.982 C 103.031 96.585 103.674 97.26 104.419 98.004 C 105.164 98.748 105.576 99.135 105.656 99.162 C 105.737 99.195 105.838 99.287 105.958 99.44 C 106.079 99.589 106.481 99.945 107.165 100.508 C 107.85 101.072 108.745 101.726 109.851 102.47 C 110.958 103.215 112.185 103.949 113.533 104.673 C 114.881 105.398 116.33 106.052 117.879 106.635 C 119.428 107.218 120.514 107.601 121.138 107.782 C 121.762 107.963 122.828 108.194 124.337 108.475 C 125.846 108.758 126.983 108.938 127.747 109.019 C 128.512 109.099 129.035 109.146 129.317 109.157 L 129.74 109.17 L 129.727 109.079 L 129.709 108.988 L 129.588 108.235 C 129.507 107.732 129.467 107.027 129.467 106.122 C 129.467 105.217 129.538 104.382 129.679 103.617 C 129.819 102.852 130.031 102.078 130.313 101.293 C 130.594 100.508 130.87 99.879 131.14 99.404 C 131.413 98.933 131.771 98.396 132.214 97.793 C 132.656 97.189 133.23 96.565 133.934 95.922 C 134.638 95.278 135.443 94.704 136.348 94.201 C 137.253 93.698 138.089 93.316 138.853 93.055 C 139.618 92.793 140.261 92.622 140.785 92.542 C 141.307 92.461 141.569 92.415 141.569 92.402 Z" fill="#5da8dc" stroke="#5da8dc" stroke-width=".5"/>
  <path d="M 187.861 106.873 L 187.861 133.423 L 185.861 133.423 L 185.861 106.873 L 176.621 106.873 L 176.621 105.013 L 197.091 105.013 L 197.091 106.873 L 187.861 106.873 ZM 219.731 133.423 L 217.701 133.423 L 213.081 119.293 C 212.781 118.333 212.397 116.926 211.931 115.073 L 211.821 115.073 L 211.411 116.513 L 210.531 119.333 L 205.831 133.423 L 203.931 133.423 L 197.881 112.303 L 199.941 112.303 L 203.321 124.543 C 204.114 127.576 204.634 129.803 204.881 131.223 L 205.001 131.223 C 205.761 128.196 206.317 126.183 206.671 125.183 L 211.021 112.303 L 212.771 112.303 L 216.911 125.143 C 217.844 128.19 218.414 130.206 218.621 131.193 L 218.731 131.193 C 218.837 130.346 219.357 128.09 220.291 124.423 L 223.521 112.303 L 225.461 112.303 L 219.731 133.423 ZM 231.519 112.303 L 231.519 133.423 L 229.599 133.423 L 229.599 112.303 L 231.519 112.303 Z M 229.319 106.433 C 229.319 105.186 229.729 104.563 230.549 104.563 C 230.949 104.563 231.262 104.726 231.489 105.053 C 231.715 105.373 231.829 105.833 231.829 106.433 C 231.829 107.013 231.715 107.473 231.489 107.813 C 231.262 108.146 230.949 108.313 230.549 108.313 C 229.729 108.313 229.319 107.686 229.319 106.433 ZM 244.165 132.103 C 245.385 132.103 246.449 132 247.355 131.793 L 247.355 133.343 C 246.422 133.656 245.349 133.813 244.135 133.813 C 242.269 133.813 240.892 133.313 240.005 132.313 C 239.112 131.32 238.665 129.753 238.665 127.613 L 238.665 113.973 L 235.545 113.973 L 235.545 112.843 L 238.665 111.973 L 239.645 107.183 L 240.635 107.183 L 240.635 112.303 L 246.835 112.303 L 246.835 113.973 L 240.635 113.973 L 240.635 127.343 C 240.635 128.963 240.919 130.16 241.485 130.933 C 242.059 131.713 242.952 132.103 244.165 132.103 ZM 257.495 132.103 C 258.715 132.103 259.778 132 260.685 131.793 L 260.685 133.343 C 259.752 133.656 258.678 133.813 257.465 133.813 C 255.598 133.813 254.222 133.313 253.335 132.313 C 252.442 131.32 251.995 129.753 251.995 127.613 L 251.995 113.973 L 248.875 113.973 L 248.875 112.843 L 251.995 111.973 L 252.975 107.183 L 253.965 107.183 L 253.965 112.303 L 260.165 112.303 L 260.165 113.973 L 253.965 113.973 L 253.965 127.343 C 253.965 128.963 254.248 130.16 254.815 130.933 C 255.388 131.713 256.282 132.103 257.495 132.103 ZM 273.785 133.813 C 270.712 133.813 268.318 132.866 266.605 130.973 C 264.885 129.08 264.025 126.43 264.025 123.023 C 264.025 119.656 264.855 116.96 266.515 114.933 C 268.175 112.906 270.408 111.893 273.215 111.893 C 275.708 111.893 277.672 112.76 279.105 114.493 C 280.545 116.233 281.265 118.593 281.265 121.573 L 281.265 123.123 L 266.045 123.123 C 266.072 126.023 266.748 128.24 268.075 129.773 C 269.408 131.3 271.312 132.063 273.785 132.063 C 274.992 132.063 276.052 131.98 276.965 131.813 C 277.878 131.64 279.032 131.276 280.425 130.723 L 280.425 132.473 C 279.238 132.993 278.138 133.346 277.125 133.533 C 276.118 133.72 275.005 133.813 273.785 133.813 Z M 273.215 113.603 C 271.182 113.603 269.552 114.273 268.325 115.613 C 267.092 116.953 266.372 118.886 266.165 121.413 L 279.225 121.413 C 279.225 118.966 278.695 117.053 277.635 115.673 C 276.568 114.293 275.095 113.603 273.215 113.603 ZM 295.406 111.893 C 296.306 111.893 297.266 111.983 298.286 112.163 L 297.916 114.013 C 297.036 113.793 296.123 113.683 295.176 113.683 C 293.376 113.683 291.899 114.446 290.746 115.973 C 289.593 117.5 289.016 119.43 289.016 121.763 L 289.016 133.423 L 287.096 133.423 L 287.096 112.303 L 288.726 112.303 L 288.916 116.103 L 289.056 116.103 C 289.923 114.55 290.849 113.46 291.836 112.833 C 292.823 112.206 294.013 111.893 295.406 111.893 Z" transform="matrix(1, 0, 0, 1, 0, 0)" style="fill: rgb(117, 117, 117); white-space: pre;"/>
</svg>