<?xml version="1.0" encoding="UTF-8" standalone="no"?>
<svg width="160px" height="60px" viewBox="0 0 160 60" version="1.1" xmlns="http://www.w3.org/2000/svg" xmlns:xlink="http://www.w3.org/1999/xlink">
    <!-- Generator: Sketch 40.3 (33839) - http://www.bohemiancoding.com/sketch -->
    <title>LogoFull</title>
    <desc>Created with Sketch.</desc>
    <defs/>
    <g id="Symbols" stroke="none" stroke-width="1" fill="none" fill-rule="evenodd">
        <g id="LogoFull">
            <rect id="Background" fill="#1A9BDB" x="0" y="0" width="160" height="60"/>
            <path d="M73.972,32.98 C74,32.728 74,32.532 74,32.42 C74,28.528 71.34,25.56 67.672,25.56 C63.948,25.56 61.26,28.472 61.26,32.42 C61.26,36.368 64.228,39.28 68.064,39.28 C70.752,39.28 72.628,38.076 73.608,36.816 L71.872,35.164 C71.116,36.004 70.052,36.956 68.092,36.956 C65.796,36.956 63.976,35.192 63.836,32.98 L73.972,32.98 Z M67.756,27.884 C69.324,27.884 70.836,29.06 71.228,30.74 L64.06,30.74 C64.508,29.032 66.048,27.884 67.756,27.884 L67.756,27.884 Z M85.2,25.644 C84.892,25.588 84.444,25.56 84.164,25.56 C82.232,25.56 80.86,26.456 80.216,27.352 L80.216,25.84 L77.64,25.84 L77.64,39 L80.3,39 L80.3,30.292 C81.028,29.032 82.484,28.08 83.856,28.08 C84.276,28.08 84.584,28.108 84.892,28.192 L85.2,25.644 Z M100.012,32.98 C100.04,32.728 100.04,32.532 100.04,32.42 C100.04,28.528 97.38,25.56 93.712,25.56 C89.988,25.56 87.3,28.472 87.3,32.42 C87.3,36.368 90.268,39.28 94.104,39.28 C96.792,39.28 98.668,38.076 99.648,36.816 L97.912,35.164 C97.156,36.004 96.092,36.956 94.132,36.956 C91.836,36.956 90.016,35.192 89.876,32.98 L100.012,32.98 Z M93.796,27.884 C95.364,27.884 96.876,29.06 97.268,30.74 L90.1,30.74 C90.548,29.032 92.088,27.884 93.796,27.884 L93.796,27.884 Z M106.256,25.84 L103.68,25.84 L103.68,39 L106.34,39 L106.34,29.956 C107.124,29.004 108.384,28.08 110.12,28.08 C111.212,28.08 112.22,28.584 112.836,29.368 C113.312,29.956 113.62,30.74 113.62,32.42 L113.62,39 L116.28,39 L116.28,32.56 C116.28,30.292 115.832,28.948 114.992,27.884 C113.872,26.456 112.136,25.56 110.204,25.56 C108.3,25.56 106.956,26.428 106.256,27.1 L106.256,25.84 Z M128.348,36.592 C127.956,36.704 127.284,36.76 126.892,36.76 C126.192,36.76 125.436,36.508 125.072,36.06 C124.736,35.668 124.68,35.08 124.68,34.38 L124.68,28.22 L128.88,28.22 L128.88,25.84 L124.68,25.84 L124.68,22.2 L122.02,22.2 L122.02,25.84 L118.66,25.84 L118.66,28.22 L122.02,28.22 L122.02,34.24 C122.02,35.668 122.3,36.872 123.084,37.74 C123.924,38.692 125.156,39.28 126.808,39.28 C127.564,39.28 128.376,39.168 128.88,39 L128.348,36.592 Z M131.4,32.42 C131.4,36.34 134.312,39.28 138.204,39.28 C142.096,39.28 145.008,36.34 145.008,32.42 C145.008,28.5 142.096,25.56 138.204,25.56 C134.312,25.56 131.4,28.5 131.4,32.42 L131.4,32.42 Z M134.06,32.42 C134.06,30.012 135.768,28.08 138.204,28.08 C140.64,28.08 142.348,30.012 142.348,32.42 C142.348,34.828 140.64,36.76 138.204,36.76 C135.768,36.76 134.06,34.828 134.06,32.42 L134.06,32.42 Z" id="erento" fill="#FFFFFF"/>
            <path d="M33.2685813,31.32712 C32.9441773,31.2252 32.6523448,31.0697067 32.3934581,30.8727733 L24.8505517,34.7841867 C25.0212709,35.4074667 25.0306305,36.0839467 24.8438128,36.7460533 L36.0631724,40.2811467 C36.5255369,39.4215467 37.2005517,38.7206133 37.9987389,38.22352 L34.4653005,31.43912 C34.0748177,31.4857867 33.6682365,31.4538667 33.2685813,31.32712 Z M41.0570837,26.2265333 C40.5361281,26.2265333 40.024532,26.2732 39.526601,26.3596267 C39.6084039,25.8808267 39.6508966,25.38896 39.6508966,24.88608 C39.6508966,19.98048 35.6631429,16.00392 30.7433596,16.00392 C25.8245123,16.00392 21.8384433,19.98048 21.8384433,24.88608 C21.8384433,25.3566667 21.8745714,25.81792 21.9430837,26.26984 C21.6581773,26.2410933 21.366532,26.22672 21.0694581,26.22672 C16.1511724,26.22672 12.1634187,30.20216 12.1634187,35.1079467 C12.1634187,39.8877333 15.951064,43.7842133 20.6943251,43.9804 L20.6943251,43.9902933 L35.6550936,43.9902933 C35.3733695,43.07824 35.3241379,42.0844267 35.5601872,41.0988267 L24.1983744,37.51968 C23.2809458,38.6814933 21.7074089,39.2161067 20.208936,38.7451467 C18.2784236,38.1371733 17.2063744,36.08104 17.8160591,34.15576 C18.4274286,32.2289867 20.4874778,31.1616267 22.4183645,31.7696 C23.1626404,32.0033067 23.7786897,32.4528 24.2197143,33.02568 L31.5185222,29.244 C31.2594483,28.64256 31.2064729,27.9504 31.4198719,27.27728 C31.8917833,25.7874933 33.4851626,24.9618667 34.9798916,25.43208 C36.4748079,25.90192 37.304069,27.4930667 36.8321576,28.9828533 C36.6387882,29.5874667 36.2630936,30.0815733 35.7829458,30.4241067 L39.284,37.1381333 C40.3169261,36.818 41.4505616,36.7984 42.5622956,37.1465333 C44.8518424,37.8704267 46.3349655,39.95288 46.3991724,42.21808 C48.5642365,40.59856 49.9674286,38.0160267 49.9674286,35.1075733 C49.9670542,30.2019733 45.9774286,26.2265333 41.0570837,26.2265333 Z" id="Logomark" fill="#FFFFFF"/>
        </g>
    </g>
</svg>