<?xml version="1.0" encoding="UTF-8"?>
<!-- Generator: Adobe Illustrator 19.2.0, SVG Export Plug-In . SVG Version: 6.00 Build 0)  -->
<svg version="1.1" id="Layer_1" xmlns="http://www.w3.org/2000/svg" xmlns:xlink="http://www.w3.org/1999/xlink" x="0px" y="0px" viewBox="0 0 400 130" enable-background="new 0 0 400 130" xml:space="preserve">
<g>
	<path fill="#FF2939" d="M34,34.9h12.5v23.7h0.3c3.2-5.1,8.6-7.6,13.3-7.6c13.3,0,16.7,7.5,16.7,18.8v28.1H64.2V72.1   c0-7.5-2.2-11.2-8-11.2c-6.8,0-9.7,3.8-9.7,13.1v23.9H34V34.9z"/>
	<path fill="#FF2939" d="M112.9,75.5c-2.1,1.9-6.5,1.9-10.4,2.6c-3.9,0.8-7.4,2.1-7.4,6.7c0,4.7,3.6,5.8,7.7,5.8   c9.8,0,10.1-7.8,10.1-10.5V75.5z M84,66.3C84.7,54.5,95.2,51,105.4,51c9.1,0,20,2,20,13v23.7c0,4.1,0.4,8.3,1.6,10.1h-12.7   c-0.4-1.4-0.8-2.9-0.9-4.4c-4,4.1-9.8,5.6-15.3,5.6c-8.6,0-15.5-4.3-15.5-13.7c0-10.3,7.8-12.8,15.5-13.8c7.7-1.1,14.8-0.9,14.8-6   c0-5.4-3.7-6.2-8.1-6.2c-4.8,0-7.8,1.9-8.3,6.9H84z"/>
	<rect x="133.4" y="34.9" fill="#FF2939" width="12.5" height="63"/>
	<polygon fill="#FF2939" points="179,97.8 165.1,97.8 149.5,52.2 162.6,52.2 172.2,83.4 172.4,83.4 182,52.2 194.4,52.2  "/>
	<path fill="#FF2939" d="M217,52.2h9.2v8.4H217v22.6c0,4.2,1.1,5.3,5.3,5.3c1.3,0,2.6-0.1,3.9-0.4v9.8c-2.1,0.4-4.9,0.4-7.3,0.4   c-7.7,0-14.4-1.8-14.4-10.8V60.6h-7.6v-8.4h7.6V38.6H217V52.2z"/>
	<path fill="#FF2939" d="M254,89.6c8.6,0,11.1-7.3,11.1-14.6c0-7.3-2.6-14.6-11.1-14.6c-8.5,0-11,7.3-11,14.6   C243,82.3,245.5,89.6,254,89.6 M254,51c14.4,0,23.6,9.5,23.6,24.1c0,14.5-9.3,24-23.6,24c-14.3,0-23.6-9.5-23.6-24   C230.4,60.5,239.7,51,254,51"/>
	<path fill="#FF2939" d="M282.5,52.2h11.9v6.4h0.3c3.2-5.1,8.6-7.6,13.9-7.6c13.3,0,16.7,7.5,16.7,18.8v28h-12.5V72.1   c0-7.5-2.2-11.2-8-11.2c-6.8,0-9.7,3.8-9.7,13.1v23.9h-12.5V52.2z"/>
	<path fill="#FF2939" d="M363.1,70.1c-1.1-6.4-3.9-9.7-10-9.7c-7.9,0-10.2,6.2-10.4,9.7H363.1z M342.8,78.1   c0.4,7.9,4.2,11.6,11.2,11.6c5,0,9.1-3.1,9.9-5.9h11c-3.5,10.8-11,15.3-21.3,15.3c-14.4,0-23.3-9.9-23.3-24   c0-13.7,9.4-24.1,23.3-24.1c15.5,0,23,13.1,22.1,27.1H342.8z"/>
	<path fill="#FF2939" d="M104.9,24.6c-5.6,0-10.2,4.6-10.2,10.2c0,5.6,4.6,10.2,10.2,10.2c5.6,0,10.2-4.6,10.2-10.2   C115.1,29.2,110.5,24.6,104.9,24.6 M104.9,29c3.2,0,5.8,2.6,5.8,5.8c0,3.2-2.6,5.8-5.8,5.8c-3.2,0-5.8-2.6-5.8-5.8   C99.1,31.7,101.7,29,104.9,29"/>
</g>
</svg>