<svg xmlns="http://www.w3.org/2000/svg" width="1440" height="900"><path d="M740,465L761,373L640,368Z" fill="#f9fdf8" stroke="#f9fdf8" stroke-width="1.51"/><path d="M761,373L731,237L640,368Z" fill="#eefbed" stroke="#eefbed" stroke-width="1.51"/><path d="M731,237L628,236L640,368Z" fill="#e5f7e3" stroke="#e5f7e3" stroke-width="1.51"/><path d="M740,465L887,420L761,373Z" fill="#f6fef7" stroke="#f6fef7" stroke-width="1.51"/><path d="M761,373L850,236L731,237Z" fill="#e5f8e5" stroke="#e5f8e5" stroke-width="1.51"/><path d="M640,368L550,537L740,465Z" fill="#f8fdf7" stroke="#f8fdf7" stroke-width="1.51"/><path d="M740,465L853,564L887,420Z" fill="#f4fef7" stroke="#f4fef7" stroke-width="1.51"/><path d="M483,507L550,537L640,368Z" fill="#effbef" stroke="#effbef" stroke-width="1.51"/><path d="M750,623L853,564L740,465Z" fill="#f0fef3" stroke="#f0fef3" stroke-width="1.51"/><path d="M550,537L750,623L740,465Z" fill="#f2fdf4" stroke="#f2fdf4" stroke-width="1.51"/><path d="M887,420L850,236L761,373Z" fill="#e9faea" stroke="#e9faea" stroke-width="1.51"/><path d="M734,105L592,165L628,236Z" fill="#d4f3d4" stroke="#d4f3d4" stroke-width="1.51"/><path d="M412,370L483,507L640,368Z" fill="#e9f9e8" stroke="#e9f9e8" stroke-width="1.51"/><path d="M483,507L548,602L550,537Z" fill="#e4f9e6" stroke="#e4f9e6" stroke-width="1.51"/><path d="M550,537L548,602L750,623Z" fill="#e7fbea" stroke="#e7fbea" stroke-width="1.51"/><path d="M887,420L962,304L850,236Z" fill="#e1f8e4" stroke="#e1f8e4" stroke-width="1.51"/><path d="M853,564L960,429L887,420Z" fill="#f0fef4" stroke="#f0fef4" stroke-width="1.51"/><path d="M628,236L497,239L640,368Z" fill="#def5dd" stroke="#def5dd" stroke-width="1.51"/><path d="M628,236L592,165L497,239Z" fill="#d4f3d2" stroke="#d4f3d2" stroke-width="1.51"/><path d="M734,105L628,236L731,237Z" fill="#dcf5db" stroke="#dcf5db" stroke-width="1.51"/><path d="M853,564L1022,490L960,429Z" fill="#eafdef" stroke="#eafdef" stroke-width="1.51"/><path d="M750,623L842,648L853,564Z" fill="#e7fded" stroke="#e7fded" stroke-width="1.51"/><path d="M883,753L842,648L723,822Z" fill="#d8fae3" stroke="#d8fae3" stroke-width="1.51"/><path d="M960,429L962,304L887,420Z" fill="#e7fbea" stroke="#e7fbea" stroke-width="1.51"/><path d="M497,239L412,370L640,368Z" fill="#def6dc" stroke="#def6dc" stroke-width="1.51"/><path d="M850,236L734,105L731,237Z" fill="#daf5da" stroke="#daf5da" stroke-width="1.51"/><path d="M942,154L879,169L850,236Z" fill="#d0f4d3" stroke="#d0f4d3" stroke-width="1.51"/><path d="M879,169L734,105L850,236Z" fill="#d3f3d4" stroke="#d3f3d4" stroke-width="1.51"/><path d="M412,370L381,415L483,507Z" fill="#e3f7e2" stroke="#e3f7e2" stroke-width="1.51"/><path d="M483,507L426,655L548,602Z" fill="#dcf7df" stroke="#dcf7df" stroke-width="1.51"/><path d="M338,248L381,415L412,370Z" fill="#d4f2d2" stroke="#d4f2d2" stroke-width="1.51"/><path d="M1008,627L1022,490L853,564Z" fill="#e2fce9" stroke="#e2fce9" stroke-width="1.51"/><path d="M960,429L1112,354L962,304Z" fill="#def9e4" stroke="#def9e4" stroke-width="1.51"/><path d="M879,169L769,42L734,105Z" fill="#cdf1cd" stroke="#cdf1cd" stroke-width="1.51"/><path d="M962,304L942,154L850,236Z" fill="#d4f5d7" stroke="#d4f5d7" stroke-width="1.51"/><path d="M1092,142L942,154L962,304Z" fill="#caf3cf" stroke="#caf3cf" stroke-width="1.51"/><path d="M723,822L842,648L750,623Z" fill="#e0fbe8" stroke="#e0fbe8" stroke-width="1.51"/><path d="M305,499L426,655L483,507Z" fill="#d9f6da" stroke="#d9f6da" stroke-width="1.51"/><path d="M734,105L598,27L592,165Z" fill="#cbefca" stroke="#cbefca" stroke-width="1.51"/><path d="M873,-50L769,42L879,169Z" fill="#c3efc4" stroke="#c3efc4" stroke-width="1.51"/><path d="M842,648L1008,627L853,564Z" fill="#e0fce8" stroke="#e0fce8" stroke-width="1.51"/><path d="M842,648L941,743L1008,627Z" fill="#d7fbe2" stroke="#d7fbe2" stroke-width="1.51"/><path d="M559,775L750,623L548,602Z" fill="#dffae4" stroke="#dffae4" stroke-width="1.51"/><path d="M1008,627L1078,511L1022,490Z" fill="#defce6" stroke="#defce6" stroke-width="1.51"/><path d="M1022,490L1112,354L960,429Z" fill="#e5fceb" stroke="#e5fceb" stroke-width="1.51"/><path d="M592,165L410,110L497,239Z" fill="#c8efc6" stroke="#c8efc6" stroke-width="1.51"/><path d="M497,239L338,248L412,370Z" fill="#cff1ce" stroke="#cff1ce" stroke-width="1.51"/><path d="M769,42L598,27L734,105Z" fill="#caf0c9" stroke="#caf0c9" stroke-width="1.51"/><path d="M495,769L559,775L548,602Z" fill="#d2f7d9" stroke="#d2f7d9" stroke-width="1.51"/><path d="M410,110L338,248L497,239Z" fill="#c4eec3" stroke="#c4eec3" stroke-width="1.51"/><path d="M381,415L305,499L483,507Z" fill="#e0f6e0" stroke="#e0f6e0" stroke-width="1.51"/><path d="M249,509L305,499L158,408Z" fill="#d3f2d2" stroke="#d3f2d2" stroke-width="1.51"/><path d="M883,753L941,743L842,648Z" fill="#d6fae1" stroke="#d6fae1" stroke-width="1.51"/><path d="M1159,679L1207,546L1078,511Z" fill="#d1fade" stroke="#d1fade" stroke-width="1.51"/><path d="M440,28L410,110L592,165Z" fill="#bcecbc" stroke="#bcecbc" stroke-width="1.51"/><path d="M460,863L495,769L335,778Z" fill="#bef3c9" stroke="#bef3c9" stroke-width="1.51"/><path d="M426,655L495,769L548,602Z" fill="#d2f6d8" stroke="#d2f6d8" stroke-width="1.51"/><path d="M706,862L723,822L559,775Z" fill="#d1f9dc" stroke="#d1f9dc" stroke-width="1.51"/><path d="M559,775L723,822L750,623Z" fill="#dcfae4" stroke="#dcfae4" stroke-width="1.51"/><path d="M883,753L984,857L941,743Z" fill="#caf9d9" stroke="#caf9d9" stroke-width="1.51"/><path d="M1078,511L1112,354L1022,490Z" fill="#e5fcec" stroke="#e5fcec" stroke-width="1.51"/><path d="M410,110L320,158L338,248Z" fill="#bbebba" stroke="#bbebba" stroke-width="1.51"/><path d="M158,408L305,499L381,415Z" fill="#d8f3d7" stroke="#d8f3d7" stroke-width="1.51"/><path d="M723,822L884,882L883,753Z" fill="#cef9db" stroke="#cef9db" stroke-width="1.51"/><path d="M632,905L706,862L559,775Z" fill="#cbf8d7" stroke="#cbf8d7" stroke-width="1.51"/><path d="M410,110L360,-17L320,158Z" fill="#b0e8af" stroke="#b0e8af" stroke-width="1.51"/><path d="M598,27L440,28L592,165Z" fill="#bfecbe" stroke="#bfecbe" stroke-width="1.51"/><path d="M1112,354L1134,254L962,304Z" fill="#d3f7d9" stroke="#d3f7d9" stroke-width="1.51"/><path d="M942,154L873,-50L879,169Z" fill="#c3f0c6" stroke="#c3f0c6" stroke-width="1.51"/><path d="M1250,349L1134,254L1112,354Z" fill="#cdf6d6" stroke="#cdf6d6" stroke-width="1.51"/><path d="M305,499L289,658L426,655Z" fill="#cdf3d1" stroke="#cdf3d1" stroke-width="1.51"/><path d="M158,408L381,415L338,248Z" fill="#cef1cd" stroke="#cef1cd" stroke-width="1.51"/><path d="M1134,254L1092,142L962,304Z" fill="#caf3d0" stroke="#caf3d0" stroke-width="1.51"/><path d="M249,509L289,658L305,499Z" fill="#cdf2d0" stroke="#cdf2d0" stroke-width="1.51"/><path d="M998,19L873,-50L942,154Z" fill="#b9edbe" stroke="#b9edbe" stroke-width="1.51"/><path d="M769,42L690,-117L598,27Z" fill="#bfecbe" stroke="#bfecbe" stroke-width="1.51"/><path d="M598,27L479,-167L440,28Z" fill="#ace6ac" stroke="#ace6ac" stroke-width="1.51"/><path d="M1092,142L998,19L942,154Z" fill="#bdefc2" stroke="#bdefc2" stroke-width="1.51"/><path d="M460,863L632,905L559,775Z" fill="#c4f6d0" stroke="#c4f6d0" stroke-width="1.51"/><path d="M706,862L884,882L723,822Z" fill="#cff9dc" stroke="#cff9dc" stroke-width="1.51"/><path d="M460,863L559,775L495,769Z" fill="#c6f5d0" stroke="#c6f5d0" stroke-width="1.51"/><path d="M706,984L884,882L706,862Z" fill="#c8f8d8" stroke="#c8f8d8" stroke-width="1.51"/><path d="M941,743L1087,756L1008,627Z" fill="#cdf9db" stroke="#cdf9db" stroke-width="1.51"/><path d="M335,778L495,769L426,655Z" fill="#c6f4ce" stroke="#c6f4ce" stroke-width="1.51"/><path d="M289,658L335,778L426,655Z" fill="#c4f2cb" stroke="#c4f2cb" stroke-width="1.51"/><path d="M984,857L1087,756L941,743Z" fill="#c5f8d5" stroke="#c5f8d5" stroke-width="1.51"/><path d="M1078,511L1207,546L1112,354Z" fill="#dffce7" stroke="#dffce7" stroke-width="1.51"/><path d="M873,-50L690,-117L769,42Z" fill="#bbebbb" stroke="#bbebbb" stroke-width="1.51"/><path d="M1159,679L1078,511L1008,627Z" fill="#d4fadf" stroke="#d4fadf" stroke-width="1.51"/><path d="M884,882L984,857L883,753Z" fill="#c6f8d6" stroke="#c6f8d6" stroke-width="1.51"/><path d="M320,158L191,244L338,248Z" fill="#baebb9" stroke="#baebb9" stroke-width="1.51"/><path d="M189,85L191,244L320,158Z" fill="#aee8ae" stroke="#aee8ae" stroke-width="1.51"/><path d="M1087,756L1159,679L1008,627Z" fill="#caf9d8" stroke="#caf9d8" stroke-width="1.51"/><path d="M249,509L200,611L289,658Z" fill="#c6f1ca" stroke="#c6f1ca" stroke-width="1.51"/><path d="M159,808L240,898L335,778Z" fill="#aaedb7" stroke="#aaedb7" stroke-width="1.51"/><path d="M44,531L200,611L249,509Z" fill="#c3f0c6" stroke="#c3f0c6" stroke-width="1.51"/><path d="M191,244L158,408L338,248Z" fill="#c1edc0" stroke="#c1edc0" stroke-width="1.51"/><path d="M440,28L360,-17L410,110Z" fill="#ade7ad" stroke="#ade7ad" stroke-width="1.51"/><path d="M479,-167L360,-17L440,28Z" fill="#a2e3a3" stroke="#a2e3a3" stroke-width="1.51"/><path d="M1207,546L1250,349L1112,354Z" fill="#d8fae1" stroke="#d8fae1" stroke-width="1.51"/><path d="M1134,254L1233,223L1092,142Z" fill="#bff1c8" stroke="#bff1c8" stroke-width="1.51"/><path d="M690,-117L636,-154L598,27Z" fill="#b3e8b2" stroke="#b3e8b2" stroke-width="1.51"/><path d="M874,-177L636,-154L690,-117Z" fill="#afe8af" stroke="#afe8af" stroke-width="1.51"/><path d="M1080,-100L981,-128L998,19Z" fill="#a4e8ab" stroke="#a4e8ab" stroke-width="1.51"/><path d="M1250,349L1233,223L1134,254Z" fill="#c4f4ce" stroke="#c4f4ce" stroke-width="1.51"/><path d="M240,898L375,874L335,778Z" fill="#afefbc" stroke="#afefbc" stroke-width="1.51"/><path d="M335,778L375,874L460,863Z" fill="#b7f1c3" stroke="#b7f1c3" stroke-width="1.51"/><path d="M616,998L706,984L632,905Z" fill="#c0f6d0" stroke="#c0f6d0" stroke-width="1.51"/><path d="M1207,546L1335,376L1250,349Z" fill="#d4f9de" stroke="#d4f9de" stroke-width="1.51"/><path d="M1159,679L1234,616L1207,546Z" fill="#c9f9d8" stroke="#c9f9d8" stroke-width="1.51"/><path d="M1216,777L1234,616L1159,679Z" fill="#c1f8d2" stroke="#c1f8d2" stroke-width="1.51"/><path d="M1216,777L1159,679L1087,756Z" fill="#bff7d1" stroke="#bff7d1" stroke-width="1.51"/><path d="M616,998L632,905L460,863Z" fill="#bdf5cc" stroke="#bdf5cc" stroke-width="1.51"/><path d="M632,905L706,984L706,862Z" fill="#c8f8d6" stroke="#c8f8d6" stroke-width="1.51"/><path d="M1027,1029L1144,865L984,857Z" fill="#b1f5c8" stroke="#b1f5c8" stroke-width="1.51"/><path d="M191,244L107,350L158,408Z" fill="#beecbd" stroke="#beecbd" stroke-width="1.51"/><path d="M158,408L44,531L249,509Z" fill="#caf0ca" stroke="#caf0ca" stroke-width="1.51"/><path d="M34,205L107,350L191,244Z" fill="#b1e8b1" stroke="#b1e8b1" stroke-width="1.51"/><path d="M411,1073L616,998L460,863Z" fill="#b0f2c1" stroke="#b0f2c1" stroke-width="1.51"/><path d="M360,-17L189,85L320,158Z" fill="#a8e5a8" stroke="#a8e5a8" stroke-width="1.51"/><path d="M873,-50L874,-177L690,-117Z" fill="#aee8af" stroke="#aee8af" stroke-width="1.51"/><path d="M998,19L981,-128L873,-50Z" fill="#abe9b0" stroke="#abe9b0" stroke-width="1.51"/><path d="M1122,-28L998,19L1092,142Z" fill="#afecb7" stroke="#afecb7" stroke-width="1.51"/><path d="M1281,122L1122,-28L1092,142Z" fill="#adecb6" stroke="#adecb6" stroke-width="1.51"/><path d="M981,-128L874,-177L873,-50Z" fill="#a6e7aa" stroke="#a6e7aa" stroke-width="1.51"/><path d="M636,-154L479,-167L598,27Z" fill="#a9e6aa" stroke="#a9e6aa" stroke-width="1.51"/><path d="M360,-17L172,18L189,85Z" fill="#9de29d" stroke="#9de29d" stroke-width="1.51"/><path d="M874,-177L479,-167L636,-154Z" fill="#a9e5a9" stroke="#a9e5a9" stroke-width="1.51"/><path d="M981,-128L1386,-184L874,-177Z" fill="#91e39b" stroke="#91e39b" stroke-width="1.51"/><path d="M1122,-28L1080,-100L998,19Z" fill="#a5e9ad" stroke="#a5e9ad" stroke-width="1.51"/><path d="M1144,865L1087,756L984,857Z" fill="#bbf7ce" stroke="#bbf7ce" stroke-width="1.51"/><path d="M1144,865L1216,777L1087,756Z" fill="#b8f6cd" stroke="#b8f6cd" stroke-width="1.51"/><path d="M1250,349L1379,215L1233,223Z" fill="#bcf3c8" stroke="#bcf3c8" stroke-width="1.51"/><path d="M1233,223L1281,122L1092,142Z" fill="#b5efbf" stroke="#b5efbf" stroke-width="1.51"/><path d="M1396,476L1335,376L1207,546Z" fill="#d2fade" stroke="#d2fade" stroke-width="1.51"/><path d="M1396,476L1207,546L1234,616Z" fill="#cbf9da" stroke="#cbf9da" stroke-width="1.51"/><path d="M1027,1029L984,857L884,882Z" fill="#b8f6cc" stroke="#b8f6cc" stroke-width="1.51"/><path d="M1379,215L1281,122L1233,223Z" fill="#b1f0bd" stroke="#b1f0bd" stroke-width="1.51"/><path d="M1122,-28L1221,-53L1080,-100Z" fill="#9be7a5" stroke="#9be7a5" stroke-width="1.51"/><path d="M479,-167L374,-157L360,-17Z" fill="#97e099" stroke="#97e099" stroke-width="1.51"/><path d="M175,-154L172,18L360,-17Z" fill="#91de93" stroke="#91de93" stroke-width="1.51"/><path d="M189,85L102,89L191,244Z" fill="#a5e5a5" stroke="#a5e5a5" stroke-width="1.51"/><path d="M159,808L335,778L289,658Z" fill="#b6efbf" stroke="#b6efbf" stroke-width="1.51"/><path d="M107,350L44,531L158,408Z" fill="#c7efc6" stroke="#c7efc6" stroke-width="1.51"/><path d="M-34,425L44,531L107,350Z" fill="#c2edc1" stroke="#c2edc1" stroke-width="1.51"/><path d="M375,874L411,1073L460,863Z" fill="#adf0bd" stroke="#adf0bd" stroke-width="1.51"/><path d="M159,808L289,658L200,611Z" fill="#b8efbf" stroke="#b8efbf" stroke-width="1.51"/><path d="M107,771L159,808L200,611Z" fill="#aeecb7" stroke="#aeecb7" stroke-width="1.51"/><path d="M172,18L102,89L189,85Z" fill="#99e19b" stroke="#99e19b" stroke-width="1.51"/><path d="M706,984L840,1082L884,882Z" fill="#bdf7d0" stroke="#bdf7d0" stroke-width="1.51"/><path d="M616,998L840,1082L706,984Z" fill="#bff7d2" stroke="#bff7d2" stroke-width="1.51"/><path d="M411,1073L840,1082L616,998Z" fill="#b3f4c7" stroke="#b3f4c7" stroke-width="1.51"/><path d="M32,648L107,771L200,611Z" fill="#b0ecb8" stroke="#b0ecb8" stroke-width="1.51"/><path d="M85,923L225,996L240,898Z" fill="#97eaa9" stroke="#97eaa9" stroke-width="1.51"/><path d="M102,89L34,205L191,244Z" fill="#a5e5a5" stroke="#a5e5a5" stroke-width="1.51"/><path d="M1281,122L1221,-53L1122,-28Z" fill="#a0e9ac" stroke="#a0e9ac" stroke-width="1.51"/><path d="M1080,-100L1386,-184L981,-128Z" fill="#8fe39b" stroke="#8fe39b" stroke-width="1.51"/><path d="M1379,215L1325,84L1281,122Z" fill="#a8edb6" stroke="#a8edb6" stroke-width="1.51"/><path d="M1407,675L1396,476L1234,616Z" fill="#c1f8d3" stroke="#c1f8d3" stroke-width="1.51"/><path d="M1144,865L1189,919L1216,777Z" fill="#aff5c6" stroke="#aff5c6" stroke-width="1.51"/><path d="M840,1082L1027,1029L884,882Z" fill="#b3f6c9" stroke="#b3f6c9" stroke-width="1.51"/><path d="M1281,122L1325,84L1221,-53Z" fill="#a0eaad" stroke="#a0eaad" stroke-width="1.51"/><path d="M1379,215L1250,349L1335,376Z" fill="#c1f4cd" stroke="#c1f4cd" stroke-width="1.51"/><path d="M1484,224L1379,215L1335,376Z" fill="#b5f2c3" stroke="#b5f2c3" stroke-width="1.51"/><path d="M1027,1029L1189,919L1144,865Z" fill="#aaf4c3" stroke="#aaf4c3" stroke-width="1.51"/><path d="M1216,777L1349,765L1234,616Z" fill="#b8f7cc" stroke="#b8f7cc" stroke-width="1.51"/><path d="M44,531L32,648L200,611Z" fill="#b8edbc" stroke="#b8edbc" stroke-width="1.51"/><path d="M-63,641L32,648L44,531Z" fill="#afeab4" stroke="#afeab4" stroke-width="1.51"/><path d="M362,1074L375,874L225,996Z" fill="#9fedb2" stroke="#9fedb2" stroke-width="1.51"/><path d="M362,1074L411,1073L375,874Z" fill="#a2eeb5" stroke="#a2eeb5" stroke-width="1.51"/><path d="M-49,261L-34,425L107,350Z" fill="#b3e9b3" stroke="#b3e9b3" stroke-width="1.51"/><path d="M-21,75L-49,261L34,205Z" fill="#9ae19b" stroke="#9ae19b" stroke-width="1.51"/><path d="M172,18L117,-39L102,89Z" fill="#91df93" stroke="#91df93" stroke-width="1.51"/><path d="M175,-154L117,-39L172,18Z" fill="#87dc8b" stroke="#87dc8b" stroke-width="1.51"/><path d="M-34,425L-39,469L44,531Z" fill="#bdecbd" stroke="#bdecbd" stroke-width="1.51"/><path d="M1400,885L1349,765L1216,777Z" fill="#a9f4c2" stroke="#a9f4c2" stroke-width="1.51"/><path d="M411,1073L362,1074L840,1082Z" fill="#a8f1bd" stroke="#a8f1bd" stroke-width="1.51"/><path d="M225,996L375,874L240,898Z" fill="#a2edb3" stroke="#a2edb3" stroke-width="1.51"/><path d="M85,923L240,898L159,808Z" fill="#9deaac" stroke="#9deaac" stroke-width="1.51"/><path d="M85,923L159,808L107,771Z" fill="#9ee9ab" stroke="#9ee9ab" stroke-width="1.51"/><path d="M1349,765L1407,675L1234,616Z" fill="#b7f6cc" stroke="#b7f6cc" stroke-width="1.51"/><path d="M34,205L-49,261L107,350Z" fill="#abe6ab" stroke="#abe6ab" stroke-width="1.51"/><path d="M-34,425L-170,404L-39,469Z" fill="#b7eab6" stroke="#b7eab6" stroke-width="1.51"/><path d="M-21,75L34,205L102,89Z" fill="#97e098" stroke="#97e098" stroke-width="1.51"/><path d="M1189,919L1400,885L1216,777Z" fill="#a7f4c1" stroke="#a7f4c1" stroke-width="1.51"/><path d="M1027,1029L1063,1083L1189,919Z" fill="#a3f3bf" stroke="#a3f3bf" stroke-width="1.51"/><path d="M840,1082L1063,1083L1027,1029Z" fill="#a6f4c1" stroke="#a6f4c1" stroke-width="1.51"/><path d="M-14,-18L-21,75L102,89Z" fill="#8add8e" stroke="#8add8e" stroke-width="1.51"/><path d="M374,-157L175,-154L360,-17Z" fill="#8edd92" stroke="#8edd92" stroke-width="1.51"/><path d="M479,-167L175,-154L374,-157Z" fill="#8bdd8e" stroke="#8bdd8e" stroke-width="1.51"/><path d="M1221,-53L1287,-110L1080,-100Z" fill="#92e59f" stroke="#92e59f" stroke-width="1.51"/><path d="M1325,84L1287,-110L1221,-53Z" fill="#95e7a3" stroke="#95e7a3" stroke-width="1.51"/><path d="M1401,34L1287,-110L1325,84Z" fill="#94e7a4" stroke="#94e7a4" stroke-width="1.51"/><path d="M-14,-18L102,89L117,-39Z" fill="#89dc8d" stroke="#89dc8d" stroke-width="1.51"/><path d="M1449,44L1401,34L1325,84Z" fill="#96e9a7" stroke="#96e9a7" stroke-width="1.51"/><path d="M1449,44L1325,84L1379,215Z" fill="#a0ebb0" stroke="#a0ebb0" stroke-width="1.51"/><path d="M1484,224L1335,376L1540,368Z" fill="#b7f3c7" stroke="#b7f3c7" stroke-width="1.51"/><path d="M32,648L-57,795L107,771Z" fill="#a1e9ab" stroke="#a1e9ab" stroke-width="1.51"/><path d="M-39,469L-63,641L44,531Z" fill="#b3ebb6" stroke="#b3ebb6" stroke-width="1.51"/><path d="M-160,619L-63,641L-39,469Z" fill="#aae8ae" stroke="#aae8ae" stroke-width="1.51"/><path d="M175,-154L112,-132L117,-39Z" fill="#7ed983" stroke="#7ed983" stroke-width="1.51"/><path d="M225,996L60,1042L362,1074Z" fill="#8de9a4" stroke="#8de9a4" stroke-width="1.51"/><path d="M-57,795L85,923L107,771Z" fill="#97e7a6" stroke="#97e7a6" stroke-width="1.51"/><path d="M1540,368L1335,376L1396,476Z" fill="#c6f7d4" stroke="#c6f7d4" stroke-width="1.51"/><path d="M1063,1083L1228,1036L1189,919Z" fill="#9df2bb" stroke="#9df2bb" stroke-width="1.51"/><path d="M1489,806L1512,602L1407,675Z" fill="#aaf5c4" stroke="#aaf5c4" stroke-width="1.51"/><path d="M1512,602L1523,485L1396,476Z" fill="#bff7d1" stroke="#bff7d1" stroke-width="1.51"/><path d="M1512,602L1396,476L1407,675Z" fill="#bbf7ce" stroke="#bbf7ce" stroke-width="1.51"/><path d="M112,-132L-14,-18L117,-39Z" fill="#7ed984" stroke="#7ed984" stroke-width="1.51"/><path d="M-166,258L-170,404L-49,261Z" fill="#a1e3a2" stroke="#a1e3a2" stroke-width="1.51"/><path d="M1524,165L1449,44L1379,215Z" fill="#9fecb0" stroke="#9fecb0" stroke-width="1.51"/><path d="M1451,-115L1386,-184L1287,-110Z" fill="#7ae190" stroke="#7ae190" stroke-width="1.51"/><path d="M1489,806L1407,675L1349,765Z" fill="#a8f4c3" stroke="#a8f4c3" stroke-width="1.51"/><path d="M1523,485L1540,368L1396,476Z" fill="#c5f7d5" stroke="#c5f7d5" stroke-width="1.51"/><path d="M1484,224L1524,165L1379,215Z" fill="#a6eeb7" stroke="#a6eeb7" stroke-width="1.51"/><path d="M1579,215L1540,368L1612,341Z" fill="#abf1bf" stroke="#abf1bf" stroke-width="1.51"/><path d="M1228,1036L1400,885L1189,919Z" fill="#9cf3bb" stroke="#9cf3bb" stroke-width="1.51"/><path d="M-63,641L-57,795L32,648Z" fill="#a1e8aa" stroke="#a1e8aa" stroke-width="1.51"/><path d="M1579,215L1524,165L1484,224Z" fill="#a0edb3" stroke="#a0edb3" stroke-width="1.51"/><path d="M-49,261L-170,404L-34,425Z" fill="#ade7ad" stroke="#ade7ad" stroke-width="1.51"/><path d="M-63,641L-219,726L-57,795Z" fill="#96e5a1" stroke="#96e5a1" stroke-width="1.51"/><path d="M-166,258L-49,261L-141,84Z" fill="#93df95" stroke="#93df95" stroke-width="1.51"/><path d="M-141,84L-49,261L-21,75Z" fill="#8ede91" stroke="#8ede91" stroke-width="1.51"/><path d="M-201,498L-160,619L-39,469Z" fill="#abe7ae" stroke="#abe7ae" stroke-width="1.51"/><path d="M1400,885L1489,806L1349,765Z" fill="#a0f3bd" stroke="#a0f3bd" stroke-width="1.51"/><path d="M1612,341L1540,368L1523,485Z" fill="#baf5cc" stroke="#baf5cc" stroke-width="1.51"/><path d="M-57,795L-63,875L85,923Z" fill="#8de59e" stroke="#8de59e" stroke-width="1.51"/><path d="M85,923L60,1042L225,996Z" fill="#8ae7a0" stroke="#8ae7a0" stroke-width="1.51"/><path d="M-201,859L-63,875L-57,795Z" fill="#86e398" stroke="#86e398" stroke-width="1.51"/><path d="M-165,-89L-141,84L-14,-18Z" fill="#74d67b" stroke="#74d67b" stroke-width="1.51"/><path d="M-14,-18L-141,84L-21,75Z" fill="#82da86" stroke="#82da86" stroke-width="1.51"/><path d="M-63,875L60,1042L85,923Z" fill="#86e59b" stroke="#86e59b" stroke-width="1.51"/><path d="M1591,-84L1451,-115L1449,44Z" fill="#7de294" stroke="#7de294" stroke-width="1.51"/><path d="M1540,368L1579,215L1484,224Z" fill="#aaf0bc" stroke="#aaf0bc" stroke-width="1.51"/><path d="M1612,341L1523,485L1673,549Z" fill="#bcf7d0" stroke="#bcf7d0" stroke-width="1.51"/><path d="M-227,7L-201,498L-166,258Z" fill="#93df95" stroke="#93df95" stroke-width="1.51"/><path d="M-166,258L-201,498L-170,404Z" fill="#a8e5a8" stroke="#a8e5a8" stroke-width="1.51"/><path d="M-170,404L-201,498L-39,469Z" fill="#b3e9b3" stroke="#b3e9b3" stroke-width="1.51"/><path d="M1287,-110L1386,-184L1080,-100Z" fill="#87e297" stroke="#87e297" stroke-width="1.51"/><path d="M1451,-115L1287,-110L1401,34Z" fill="#86e399" stroke="#86e399" stroke-width="1.51"/><path d="M1451,-115L1401,34L1449,44Z" fill="#89e59d" stroke="#89e59d" stroke-width="1.51"/><path d="M1673,549L1523,485L1512,602Z" fill="#b4f6cb" stroke="#b4f6cb" stroke-width="1.51"/><path d="M1600,22L1449,44L1524,165Z" fill="#8fe8a3" stroke="#8fe8a3" stroke-width="1.51"/><path d="M1228,1036L1398,1020L1400,885Z" fill="#91f1b4" stroke="#91f1b4" stroke-width="1.51"/><path d="M1400,885L1529,923L1489,806Z" fill="#94f2b6" stroke="#94f2b6" stroke-width="1.51"/><path d="M1626,1061L1398,1020L1228,1036Z" fill="#82efab" stroke="#82efab" stroke-width="1.51"/><path d="M112,-132L-68,-132L-14,-18Z" fill="#72d67a" stroke="#72d67a" stroke-width="1.51"/><path d="M175,-154L-68,-132L112,-132Z" fill="#72d67a" stroke="#72d67a" stroke-width="1.51"/><path d="M-201,498L-219,726L-160,619Z" fill="#9be5a2" stroke="#9be5a2" stroke-width="1.51"/><path d="M-160,619L-219,726L-63,641Z" fill="#99e5a2" stroke="#99e5a2" stroke-width="1.51"/><path d="M-63,875L-33,1076L60,1042Z" fill="#7be394" stroke="#7be394" stroke-width="1.51"/><path d="M1489,806L1650,639L1512,602Z" fill="#a6f4c1" stroke="#a6f4c1" stroke-width="1.51"/><path d="M1398,1020L1529,923L1400,885Z" fill="#8df1b2" stroke="#8df1b2" stroke-width="1.51"/><path d="M1652,824L1650,639L1489,806Z" fill="#98f2b8" stroke="#98f2b8" stroke-width="1.51"/><path d="M1658,129L1600,22L1524,165Z" fill="#8de9a3" stroke="#8de9a3" stroke-width="1.51"/><path d="M1451,-115L1591,-84L1386,-184Z" fill="#72df8c" stroke="#72df8c" stroke-width="1.51"/><path d="M1658,129L1524,165L1579,215Z" fill="#97ebac" stroke="#97ebac" stroke-width="1.51"/><path d="M1658,129L1579,215L1786,305Z" fill="#96ecae" stroke="#96ecae" stroke-width="1.51"/><path d="M1650,639L1673,549L1512,602Z" fill="#abf4c4" stroke="#abf4c4" stroke-width="1.51"/><path d="M-140,1049L-33,1076L-63,875Z" fill="#73e18e" stroke="#73e18e" stroke-width="1.51"/><path d="M60,1042L-33,1076L362,1074Z" fill="#81e69b" stroke="#81e69b" stroke-width="1.51"/><path d="M362,1074L-33,1076L840,1082Z" fill="#9aedb0" stroke="#9aedb0" stroke-width="1.51"/><path d="M-68,-132L-165,-89L-14,-18Z" fill="#6ad373" stroke="#6ad373" stroke-width="1.51"/><path d="M-141,84L-227,7L-166,258Z" fill="#80da85" stroke="#80da85" stroke-width="1.51"/><path d="M-201,498L-227,7L-219,726Z" fill="#a7e5a8" stroke="#a7e5a8" stroke-width="1.51"/><path d="M1744,350L1579,215L1612,341Z" fill="#a5f0bb" stroke="#a5f0bb" stroke-width="1.51"/><path d="M-219,726L-201,859L-57,795Z" fill="#88e297" stroke="#88e297" stroke-width="1.51"/><path d="M-165,-89L-227,7L-141,84Z" fill="#6dd576" stroke="#6dd576" stroke-width="1.51"/><path d="M1626,1061L1505,1018L1398,1020Z" fill="#7aeea7" stroke="#7aeea7" stroke-width="1.51"/><path d="M1398,1020L1505,1018L1529,923Z" fill="#84efac" stroke="#84efac" stroke-width="1.51"/><path d="M1529,923L1598,910L1489,806Z" fill="#8df0b2" stroke="#8df0b2" stroke-width="1.51"/><path d="M1726,-88L1591,-84L1600,22Z" fill="#6fe08d" stroke="#6fe08d" stroke-width="1.51"/><path d="M1600,22L1591,-84L1449,44Z" fill="#80e497" stroke="#80e497" stroke-width="1.51"/><path d="M1505,1018L1598,910L1529,923Z" fill="#82efac" stroke="#82efac" stroke-width="1.51"/><path d="M1730,691L1745,478L1673,549Z" fill="#a7f4c2" stroke="#a7f4c2" stroke-width="1.51"/><path d="M1598,910L1652,824L1489,806Z" fill="#8ef1b2" stroke="#8ef1b2" stroke-width="1.51"/><path d="M1745,478L1744,350L1612,341Z" fill="#aef4c4" stroke="#aef4c4" stroke-width="1.51"/><path d="M1658,129L1761,91L1600,22Z" fill="#82e79c" stroke="#82e79c" stroke-width="1.51"/><path d="M1745,478L1612,341L1673,549Z" fill="#b7f6cc" stroke="#b7f6cc" stroke-width="1.51"/><path d="M1730,691L1673,549L1650,639Z" fill="#a1f3be" stroke="#a1f3be" stroke-width="1.51"/><path d="M-201,859L-140,1049L-63,875Z" fill="#77e08e" stroke="#77e08e" stroke-width="1.51"/><path d="M1652,824L1730,691L1650,639Z" fill="#96f1b7" stroke="#96f1b7" stroke-width="1.51"/><path d="M1745,478L1786,305L1744,350Z" fill="#acf3c2" stroke="#acf3c2" stroke-width="1.51"/><path d="M1744,350L1786,305L1579,215Z" fill="#a0efb6" stroke="#a0efb6" stroke-width="1.51"/><path d="M1746,780L1786,305L1745,478Z" fill="#aef5c6" stroke="#aef5c6" stroke-width="1.51"/><path d="M1786,305L1761,91L1658,129Z" fill="#8feaa7" stroke="#8feaa7" stroke-width="1.51"/><path d="M1730,691L1746,780L1745,478Z" fill="#9ef3bc" stroke="#9ef3bc" stroke-width="1.51"/><path d="M1652,824L1746,780L1730,691Z" fill="#8ef0b3" stroke="#8ef0b3" stroke-width="1.51"/><path d="M1734,938L1746,780L1652,824Z" fill="#83efac" stroke="#83efac" stroke-width="1.51"/><path d="M1734,938L1652,824L1598,910Z" fill="#80efaa" stroke="#80efaa" stroke-width="1.51"/><path d="M1505,1018L1626,1061L1598,910Z" fill="#79eea7" stroke="#79eea7" stroke-width="1.51"/><path d="M1063,1083L1626,1061L1228,1036Z" fill="#89f0b0" stroke="#89f0b0" stroke-width="1.51"/><path d="M1797,0L1726,-88L1600,22Z" fill="#6fe28e" stroke="#6fe28e" stroke-width="1.51"/><path d="M1591,-84L1726,-88L1386,-184Z" fill="#6ade88" stroke="#6ade88" stroke-width="1.51"/><path d="M1626,1061L1734,938L1598,910Z" fill="#75eda5" stroke="#75eda5" stroke-width="1.51"/><path d="M1746,780L1767,1015L1786,305Z" fill="#97f2b8" stroke="#97f2b8" stroke-width="1.51"/><path d="M1761,91L1797,0L1600,22Z" fill="#79e496" stroke="#79e496" stroke-width="1.51"/><path d="M1786,305L1797,0L1761,91Z" fill="#88e8a2" stroke="#88e8a2" stroke-width="1.51"/><path d="M1626,1061L1767,1015L1734,938Z" fill="#6beca0" stroke="#6beca0" stroke-width="1.51"/><path d="M1734,938L1767,1015L1746,780Z" fill="#7aeea7" stroke="#7aeea7" stroke-width="1.51"/><path d="M1786,305L1767,1015L1797,0Z" fill="#b5f5ca" stroke="#b5f5ca" stroke-width="1.51"/></svg>