<?xml version="1.0" encoding="utf-8"?>
<svg viewBox="85.75 157.25799560546875 312.89300537109375 99.6050033569336" width="312.89300537109375" height="99.6050033569336" xmlns="http://www.w3.org/2000/svg">
  <path d="M 92.351 240.866 L 92.351 174.666 C 92.351 173.733 92.684 172.933 93.351 172.266 C 94.018 171.599 94.851 171.266 95.851 171.266 L 114.851 171.266 C 130.184 171.266 137.851 178.066 137.851 191.666 C 137.851 197.333 136.584 201.783 134.051 205.016 C 131.518 208.249 128.084 210.399 123.751 211.466 L 137.751 237.766 C 138.018 238.233 138.151 238.733 138.151 239.266 C 138.151 240.599 137.468 241.833 136.101 242.966 C 134.734 244.099 133.284 244.666 131.751 244.666 C 130.018 244.666 128.618 243.633 127.551 241.566 L 112.951 212.966 L 102.851 212.966 L 102.851 240.866 C 102.851 241.933 102.334 242.783 101.301 243.416 C 100.268 244.049 99.018 244.366 97.551 244.366 C 96.151 244.366 94.934 244.049 93.901 243.416 C 92.868 242.783 92.351 241.933 92.351 240.866 Z M 102.851 180.666 L 102.851 204.466 L 114.851 204.466 C 123.118 204.466 127.251 200.499 127.251 192.566 C 127.251 184.633 123.118 180.666 114.851 180.666 L 102.851 180.666 ZM 143.946 225.266 L 143.946 215.766 C 143.946 210.499 145.98 205.949 150.046 202.116 C 154.113 198.283 159.013 196.366 164.746 196.366 C 170.213 196.366 174.896 198.116 178.796 201.616 C 182.696 205.116 184.646 209.533 184.646 214.866 C 184.646 216.866 184.413 218.483 183.946 219.716 C 183.48 220.949 182.746 221.816 181.746 222.316 C 180.746 222.816 179.813 223.133 178.946 223.266 C 178.08 223.399 176.946 223.466 175.546 223.466 L 154.446 223.466 L 154.446 225.766 C 154.446 229.099 155.646 231.749 158.046 233.716 C 160.446 235.683 163.58 236.666 167.446 236.666 C 170.18 236.666 172.763 236.033 175.196 234.766 C 177.63 233.499 179.113 232.866 179.646 232.866 C 180.78 232.866 181.746 233.399 182.546 234.466 C 183.346 235.533 183.746 236.566 183.746 237.566 C 183.746 239.233 182.146 240.916 178.946 242.616 C 175.746 244.316 171.813 245.166 167.146 245.166 C 160.346 245.166 154.78 243.333 150.446 239.666 C 146.113 235.999 143.946 231.199 143.946 225.266 Z M 154.446 213.766 L 154.446 216.966 L 171.046 216.966 C 172.513 216.966 173.496 216.766 173.996 216.366 C 174.496 215.966 174.746 215.166 174.746 213.966 C 174.746 211.299 173.78 209.033 171.846 207.166 C 169.913 205.299 167.513 204.366 164.646 204.366 C 161.846 204.366 159.446 205.249 157.446 207.016 C 155.446 208.783 154.446 211.033 154.446 213.766 ZM 190.142 231.966 C 190.142 226.633 192.142 222.916 196.142 220.816 C 200.142 218.716 205.942 217.666 213.542 217.666 L 217.942 217.666 L 217.942 215.866 C 217.942 212.933 217.125 210.399 215.492 208.266 C 213.859 206.133 211.375 205.066 208.042 205.066 C 205.175 205.066 202.659 205.566 200.492 206.566 C 198.325 207.566 197.142 208.066 196.942 208.066 C 195.809 208.066 194.892 207.516 194.192 206.416 C 193.492 205.316 193.142 204.099 193.142 202.766 C 193.142 201.033 194.759 199.533 197.992 198.266 C 201.225 196.999 204.642 196.366 208.242 196.366 C 215.109 196.366 220.192 198.216 223.492 201.916 C 226.792 205.616 228.442 210.233 228.442 215.766 L 228.442 240.866 C 228.442 241.799 227.959 242.616 226.992 243.316 C 226.025 244.016 224.809 244.366 223.342 244.366 C 222.009 244.366 220.875 244.016 219.942 243.316 C 219.009 242.616 218.542 241.799 218.542 240.866 L 218.542 237.366 C 214.075 242.566 209.042 245.166 203.442 245.166 C 199.575 245.166 196.392 244.033 193.892 241.766 C 191.392 239.499 190.142 236.233 190.142 231.966 Z M 200.742 230.666 C 200.742 232.799 201.342 234.416 202.542 235.516 C 203.742 236.616 205.309 237.166 207.242 237.166 C 209.775 237.166 212.192 236.099 214.492 233.966 C 216.792 231.833 217.942 229.566 217.942 227.166 L 217.942 223.466 L 215.442 223.466 C 212.442 223.466 209.992 223.599 208.092 223.866 C 206.192 224.133 204.492 224.833 202.992 225.966 C 201.492 227.099 200.742 228.666 200.742 230.666 ZM 240.038 240.866 L 240.038 172.166 C 240.038 171.166 240.521 170.349 241.488 169.716 C 242.455 169.083 243.705 168.766 245.238 168.766 C 246.705 168.766 247.955 169.083 248.988 169.716 C 250.021 170.349 250.538 171.166 250.538 172.166 L 250.538 240.866 C 250.538 241.733 250.005 242.533 248.938 243.266 C 247.871 243.999 246.638 244.366 245.238 244.366 C 243.771 244.366 242.538 243.999 241.538 243.266 C 240.538 242.533 240.038 241.733 240.038 240.866 Z" transform="matrix(1, 0, 0, 1, 0, 0)" style="white-space: pre; fill: rgb(58, 201, 85);"/>
  <rect x="262.54" y="157.258" width="136.103" height="99.605" transform="matrix(1, 0, 0, 1, 0, 0)" style="fill: rgb(58, 201, 85);"/>
  <path d="M 274.345 240.863 L 274.345 176.563 C 274.345 174.763 274.845 173.43 275.845 172.563 C 276.845 171.696 278.112 171.263 279.645 171.263 C 281.578 171.263 283.162 171.68 284.395 172.513 C 285.628 173.346 286.845 174.93 288.045 177.263 L 302.045 203.763 L 316.245 177.263 C 317.445 174.93 318.645 173.346 319.845 172.513 C 321.045 171.68 322.612 171.263 324.545 171.263 C 326.078 171.263 327.345 171.696 328.345 172.563 C 329.345 173.43 329.845 174.763 329.845 176.563 L 329.845 240.863 C 329.845 241.93 329.328 242.78 328.295 243.413 C 327.262 244.046 326.012 244.363 324.545 244.363 C 323.145 244.363 321.912 244.046 320.845 243.413 C 319.778 242.78 319.245 241.93 319.245 240.863 L 319.245 192.863 L 305.845 217.663 C 304.845 219.263 303.545 220.063 301.945 220.063 C 300.345 220.063 299.145 219.263 298.345 217.663 L 284.945 192.263 L 284.945 240.863 C 284.945 241.93 284.428 242.78 283.395 243.413 C 282.362 244.046 281.112 244.363 279.645 244.363 C 278.245 244.363 277.012 244.046 275.945 243.413 C 274.878 242.78 274.345 241.93 274.345 240.863 ZM 342.339 222.663 L 342.339 193.563 C 342.339 185.83 344.372 180.18 348.439 176.613 C 352.506 173.046 357.939 171.263 364.739 171.263 C 371.539 171.263 376.989 173.046 381.089 176.613 C 385.189 180.18 387.239 185.83 387.239 193.563 L 387.239 222.663 C 387.239 229.663 385.539 234.963 382.139 238.563 C 378.739 242.163 374.139 244.23 368.339 244.763 L 368.339 251.763 C 368.339 252.83 367.989 253.68 367.289 254.313 C 366.589 254.946 365.739 255.263 364.739 255.263 C 363.806 255.263 362.989 254.946 362.289 254.313 C 361.589 253.68 361.239 252.83 361.239 251.763 L 361.239 244.763 C 355.439 244.23 350.839 242.18 347.439 238.613 C 344.039 235.046 342.339 229.73 342.339 222.663 Z M 352.939 193.563 L 352.939 222.663 C 352.939 229.73 355.706 233.83 361.239 234.963 L 361.239 228.863 C 361.239 226.596 362.406 225.463 364.739 225.463 C 365.739 225.463 366.589 225.746 367.289 226.313 C 367.989 226.88 368.339 227.73 368.339 228.863 L 368.339 234.863 C 373.872 233.663 376.639 229.596 376.639 222.663 L 376.639 193.563 C 376.639 189.23 375.606 185.996 373.539 183.863 C 371.472 181.73 368.539 180.663 364.739 180.663 C 356.872 180.663 352.939 184.963 352.939 193.563 Z" transform="matrix(1, 0, 0, 1, 0, 0)" style="fill: rgb(255, 255, 255); white-space: pre;"/>
</svg>